<svg xmlns="http://www.w3.org/2000/svg" version="1.2" viewBox="0 0 1024 1024" preserveAspectRatio="xMidYMid meet" baseProfile="tiny-ps" xml:space="preserve"><title>Global Talent Europe Logo</title>
<path d="M0 0 C337.92 0 675.84 0 1024 0 C1024 337.92 1024 675.84 1024 1024 C686.08 1024 348.16 1024 0 1024 C0 686.08 0 348.16 0 0 Z " fill="#FDFDFD" transform="translate(0,0)"/>
<path d="M0 0 C6.17289459 5.63823443 9.36368437 12.32434367 10.1875 20.5625 C9.968113 37.20848842 -0.08122282 53.397428 -10.1875 65.8125 C-10.61772461 66.34568848 -11.04794922 66.87887695 -11.49121094 67.42822266 C-22.98832963 81.56792528 -35.835495 94.57954775 -50.1875 105.8125 C-52.00303726 107.35058869 -53.81534828 108.89249094 -55.625 110.4375 C-69.17010214 121.73386923 -83.55467062 131.98306488 -98.1875 141.8125 C-99.17363281 142.4828125 -100.15976562 143.153125 -101.17578125 143.84375 C-116.45339517 154.15561112 -132.15262018 163.73119107 -148.1875 172.8125 C-148.89632324 173.21645996 -149.60514648 173.62041992 -150.33544922 174.03662109 C-163.31211598 181.42036562 -176.55264159 188.29263699 -189.84033203 195.09716797 C-191.96039401 196.18364174 -194.0787761 197.27340508 -196.19482422 198.36767578 C-208.81742251 204.89096571 -221.62654778 210.89627814 -234.625 216.625 C-235.32553497 216.93388153 -236.02606995 217.24276306 -236.74783325 217.56100464 C-247.16150544 222.14123293 -257.65300608 226.51817878 -268.1875 230.8125 C-258.01734722 228.42409788 -248.40695758 224.63645565 -238.6875 220.875 C-237.405905 220.38351974 -237.405905 220.38351974 -236.09841919 219.8821106 C-227.25215572 216.48764658 -218.45634325 213.03274497 -209.83984375 209.0859375 C-209.21304718 208.79957932 -208.58625061 208.51322113 -207.94046021 208.21818542 C-205.05543252 206.89212058 -202.18881253 205.53686 -199.3359375 204.14282227 C-192.05943697 200.71054391 -192.05943697 200.71054391 -187.98046875 201.1875 C-186.59794922 201.991875 -186.59794922 201.991875 -185.1875 202.8125 C-184.57672607 203.16578369 -183.96595215 203.51906738 -183.33666992 203.88305664 C-181.20408277 205.15779184 -179.13342157 206.50249129 -177.0625 207.875 C-175.94089478 208.61145752 -175.94089478 208.61145752 -174.79663086 209.36279297 C-164.60294083 216.11486942 -155.08984418 223.40962727 -146.1875 231.8125 C-145.42695312 232.50859375 -144.66640625 233.2046875 -143.8828125 233.921875 C-137.58306203 239.8946488 -132.87490805 246.56151948 -128.1875 253.8125 C-127.69636719 254.55371094 -127.20523437 255.29492188 -126.69921875 256.05859375 C-124.12455278 260.17275071 -124.12455278 260.17275071 -124.37890625 262.7578125 C-126.03775171 266.97304298 -129.92791805 269.78737921 -133.1875 272.8125 C-133.79851562 273.38097656 -134.40953125 273.94945312 -135.0390625 274.53515625 C-154.11317606 291.70185846 -176.44397382 305.20545291 -200.1875 314.8125 C-200.88617187 315.10366699 -201.58484375 315.39483398 -202.3046875 315.69482422 C-253.50972741 336.8723599 -312.47358435 335.51674811 -363.52880859 314.91748047 C-384.10777195 306.36464409 -410.81821004 294.53133649 -425.57600403 277.17997742 C-427.77862558 275.3108848 -429.16315066 275.44984435 -432.02612305 275.47192383 C-433.49730843 275.47226372 -433.49730843 275.47226372 -434.99821472 275.47261047 C-436.58271172 275.49583626 -436.58271172 275.49583626 -438.19921875 275.51953125 C-439.28258011 275.52377609 -440.36594147 275.52802094 -441.48213196 275.53239441 C-444.94667277 275.54920431 -448.41063462 275.58686152 -451.875 275.625 C-454.22199682 275.64004381 -456.56900274 275.65373274 -458.91601562 275.66601562 C-464.67337505 275.69911539 -470.43039617 275.74933795 -476.1875 275.8125 C-476.1875 275.4825 -476.1875 275.1525 -476.1875 274.8125 C-474.8406311 274.64028931 -474.8406311 274.64028931 -473.46655273 274.46459961 C-452.04980051 271.68127844 -431.16180262 267.96873664 -410.1875 262.8125 C-408.8871582 262.49684082 -408.8871582 262.49684082 -407.56054688 262.17480469 C-404.251806 261.37085105 -400.95000951 260.54780375 -397.65234375 259.69921875 C-395.2127471 259.07488003 -392.76667563 258.47557394 -390.31640625 257.89453125 C-380.76717712 255.62641405 -371.55142512 252.68770711 -362.26806641 249.51318359 C-356.40196047 247.53762339 -350.46652421 245.75828004 -344.51953125 244.04296875 C-340.54895074 242.8918082 -336.6797507 241.6590237 -332.8515625 240.09375 C-328.56235146 238.35830874 -324.25674454 236.66915708 -319.94140625 235 C-302.1254297 228.08870592 -284.5508471 220.80761568 -267.1875 212.8125 C-266.54516418 212.51754639 -265.90282837 212.22259277 -265.24102783 211.91870117 C-249.51456144 204.69663304 -233.82843423 197.43198685 -218.62939453 189.14160156 C-215.77889211 187.59009835 -212.91892277 186.05674628 -210.05859375 184.5234375 C-207.91376325 183.37034811 -205.76922902 182.21670748 -203.625 181.0625 C-202.63693359 180.53124512 -201.64886719 179.99999023 -200.63085938 179.45263672 C-194.3781999 176.06701423 -188.26380204 172.50354529 -182.1875 168.8125 C-180.60391431 167.86932902 -179.01928241 166.92791234 -177.43359375 165.98828125 C-153.12793573 151.53701233 -129.79950979 135.79236713 -107.1875 118.8125 C-106.56617188 118.34714844 -105.94484375 117.88179687 -105.3046875 117.40234375 C-97.00601166 111.16903342 -89.04698493 104.58537157 -81.1875 97.8125 C-80.50558594 97.23242188 -79.82367187 96.65234375 -79.12109375 96.0546875 C-41.86928657 64.22778297 -41.86928657 64.22778297 -22.96875 20.66796875 C-22.67334338 13.44281529 -24.44759099 6.71618391 -29.43359375 1.25390625 C-43.7174913 -10.48497615 -63.747129 -10.05199016 -81.1875 -11.1875 C-81.1875 -11.5175 -81.1875 -11.8475 -81.1875 -12.1875 C-55.29510197 -15.94391008 -21.62254304 -17.44272059 0 0 Z " fill="#066A91" transform="translate(793.1875,290.1875)"/>
<path d="M0 0 C4.7336135 0.57278885 8.90457502 2.06593246 13.359375 3.7265625 C14.31287842 4.07831543 15.26638184 4.43006836 16.2487793 4.79248047 C23.56106797 7.56090425 30.6730961 10.68502705 37.734375 14.0390625 C39.13707642 14.7028894 39.13707642 14.7028894 40.56811523 15.38012695 C46.52506779 18.28072232 52.0083975 21.59600526 57.421875 25.4140625 C56.0311185 45.81182454 38.85448161 65.63401603 25.59375 79.9921875 C23.47926751 82.35006365 21.55109924 84.78812169 19.609375 87.2890625 C14.90095513 93.11614951 9.65337197 98.36958447 4.359375 103.6640625 C3.08259888 104.94192627 3.08259888 104.94192627 1.7800293 106.24560547 C-2.65705684 110.64440748 -7.1726128 114.88317198 -11.90942383 118.95703125 C-13.84038771 120.64305794 -15.62656162 122.42997931 -17.390625 124.2890625 C-21.29561713 128.25530941 -25.5196038 131.71230682 -29.85546875 135.1953125 C-32.32631101 137.20885397 -34.71132277 139.2801299 -37.078125 141.4140625 C-60.11158113 162.08302225 -85.71676053 180.47993061 -111.578125 197.4140625 C-112.97789144 198.34110528 -114.37762872 199.2681921 -115.77734375 200.1953125 C-161.03814524 230.03661193 -208.63051734 255.47290945 -258.88671875 275.8125 C-259.52779068 276.07414948 -260.16886261 276.33579895 -260.82936096 276.6053772 C-265.34249172 278.4140625 -265.34249172 278.4140625 -267.578125 278.4140625 C-270.6769952 268.07259235 -273.66594726 257.73341679 -275.890625 247.1640625 C-276.04950195 246.41600342 -276.20837891 245.66794434 -276.37207031 244.8972168 C-278.04963856 236.64302799 -278.73222568 228.51769958 -278.7109375 220.1015625 C-278.71189423 219.24780029 -278.71285095 218.39403809 -278.71383667 217.5144043 C-278.71451226 215.72281825 -278.71270168 213.93122967 -278.70849609 212.13964844 C-278.703139 209.42116722 -278.70846235 206.70285118 -278.71484375 203.984375 C-278.71418286 202.23177047 -278.71290147 200.47916605 -278.7109375 198.7265625 C-278.71296173 197.92629639 -278.71498596 197.12603027 -278.71707153 196.30151367 C-278.69514266 190.93713654 -278.24621911 185.73758502 -277.578125 180.4140625 C-276.66675781 180.08535156 -275.75539063 179.75664062 -274.81640625 179.41796875 C-236.62076717 165.47608285 -199.53608779 146.76980357 -164.77197266 125.73632812 C-162.38559642 124.29802257 -159.98791288 122.87965468 -157.58984375 121.4609375 C-131.17059233 105.71967574 -105.35889031 88.48195445 -80.86328125 69.8828125 C-78.28899606 67.93514639 -75.68579103 66.03016876 -73.07421875 64.1328125 C-64.63564937 57.99344508 -56.38029472 51.77764176 -48.5 44.93359375 C-45.65888183 42.48369907 -42.75771978 40.13192905 -39.828125 37.7890625 C-34.73207551 33.64387938 -30.14034296 29.13122372 -25.578125 24.4140625 C-23.04043074 21.86408908 -20.49047048 19.32757154 -17.9296875 16.80078125 C-17.02992188 15.91003906 -16.13015625 15.01929688 -15.203125 14.1015625 C-14.48249878 13.39132935 -14.48249878 13.39132935 -13.74731445 12.66674805 C-10.30672757 9.241178 -7.21383297 5.66397746 -4.30859375 1.77734375 C-2.578125 0.4140625 -2.578125 0.4140625 0 0 Z " fill="#02D3EC" transform="translate(567.578125,187.5859375)"/>
<path d="M0 0 C3.82529322 3.55158114 6.63664413 7.17782256 9.1875 11.75 C9.75126343 12.7565564 9.75126343 12.7565564 10.32641602 13.78344727 C13.84120501 20.29998585 16.67530238 27.07413261 19.4375 33.9375 C19.86248779 34.99098633 20.28747559 36.04447266 20.7253418 37.12988281 C23.04213066 43.04520794 24.80896865 48.75847504 26 55 C30.22478132 52.79057373 32.69923161 50.24015753 35.625 46.5 C40.35897606 40.48962766 40.35897606 40.48962766 43 38 C40.93959268 48.06789939 33.968808 55.87332256 27 63 C25.80503906 64.25296875 25.80503906 64.25296875 24.5859375 65.53125 C18.76006612 71.52357484 12.56555348 76.83879516 6 82 C4.64261719 83.10021484 4.64261719 83.10021484 3.2578125 84.22265625 C-17.97026285 101.08686995 -41.48004512 114.75386614 -65.30566406 127.55078125 C-67.75767801 128.86966081 -70.20347508 130.19936386 -72.6484375 131.53125 C-86.45992769 138.99406808 -100.6969483 145.54472076 -115 152 C-116.15838379 152.52464844 -117.31676758 153.04929687 -118.51025391 153.58984375 C-150.61493635 168.04889489 -183.63987539 180.27882876 -217.13632202 191.09489441 C-220.41701641 192.15436837 -223.69120669 193.2285299 -226.95507812 194.33886719 C-234.28453362 196.83101861 -241.59489743 199.07304418 -249.125 200.875 C-250.63489502 201.24226196 -250.63489502 201.24226196 -252.17529297 201.61694336 C-254.33117457 202.1408624 -256.48760058 202.6625457 -258.64453125 203.18212891 C-262.08144148 204.01985077 -265.50957245 204.88801759 -268.9375 205.76171875 C-300.91370405 213.83185145 -333.58264816 219.18283879 -366.625 219.3125 C-367.79168213 219.31805908 -368.95836426 219.32361816 -370.16040039 219.3293457 C-380.59414808 219.24113496 -390.53095028 217.54839914 -400.625 215 C-401.31722656 214.835 -402.00945312 214.67 -402.72265625 214.5 C-407.75584416 213.24415584 -407.75584416 213.24415584 -410 211 C-409.32807617 211.13712402 -408.65615234 211.27424805 -407.96386719 211.41552734 C-399.06074175 213.08020614 -390.27216959 213.43036443 -381.25 213.625 C-379.76300086 213.66329461 -378.27602117 213.70235242 -376.7890625 213.7421875 C-373.19288911 213.83689905 -369.59656524 213.92136909 -366 214 C-366 213.34 -366 212.68 -366 212 C-366.825 211.95875 -367.65 211.9175 -368.5 211.875 C-377.24642558 209.6883936 -385.37788561 201.12728257 -390.45703125 193.9375 C-393 189.62433746 -393 189.62433746 -393 187 C-387.48861839 184.97638256 -381.96878202 182.98859981 -376.41601562 181.08105469 C-357.92046459 174.68283297 -339.74531983 167.25051324 -322 159 C-321.06220703 158.56461914 -320.12441406 158.12923828 -319.15820312 157.68066406 C-291.04925169 144.56255316 -263.73194046 129.59836682 -237.7980957 112.5546875 C-237.07452881 112.08546875 -236.35096191 111.61625 -235.60546875 111.1328125 C-234.97793701 110.71918457 -234.35040527 110.30555664 -233.70385742 109.87939453 C-232 109 -232 109 -229 109 C-227.45703125 111.23828125 -227.45703125 111.23828125 -225.8125 114.3125 C-215.81856482 132.14235082 -202.94533419 144.8724792 -186 156 C-189.14814814 158.54105941 -192.39025721 160.28621597 -196.03125 162.0390625 C-196.61436447 162.3209996 -197.19747894 162.60293671 -197.79826355 162.89341736 C-199.69642793 163.80907049 -201.59784015 164.71767882 -203.5 165.625 C-204.15569977 165.93879608 -204.81139954 166.25259216 -205.48696899 166.57589722 C-209.98606477 168.72841894 -214.4922299 170.86571136 -219 173 C-219.91442871 173.43683105 -220.82885742 173.87366211 -221.77099609 174.32373047 C-242.8494018 184.35840843 -265.00015829 192.24044992 -287 200 C-281.12068178 198.60295019 -281.12068178 198.60295019 -275.24243164 197.20141602 C-269.9848223 195.94579616 -264.72507503 194.70064194 -259.4609375 193.47265625 C-257.28644548 192.9609921 -255.11196607 192.44927442 -252.9375 191.9375 C-251.92888916 191.70466309 -250.92027832 191.47182617 -249.88110352 191.23193359 C-243.74743831 189.78108876 -237.81300126 188.01406276 -231.85375977 185.96240234 C-229.33261784 185.11217209 -226.80997192 184.3586592 -224.25 183.63671875 C-217.00402554 181.49152894 -210.01573288 178.60325827 -203 175.8125 C-202.26501282 175.52076904 -201.53002563 175.22903809 -200.77276611 174.9284668 C-195.84176949 172.9688958 -190.91828866 170.99123589 -186 169 C-185.03803711 168.61118652 -184.07607422 168.22237305 -183.08496094 167.82177734 C-170.71497351 162.75727147 -159.26954068 156.23931086 -147.71435547 149.55029297 C-145.28700946 148.16392428 -142.84429948 146.82104892 -140.37890625 145.50390625 C-127.34518366 138.53095237 -115.17733227 130.3635278 -103 122 C-102.28263672 121.50967285 -101.56527344 121.0193457 -100.82617188 120.51416016 C-87.68186896 111.49177582 -75.35722433 101.41885502 -63.71875 90.53125 C-61.23072012 88.21480839 -58.68917871 85.98116849 -56.125 83.75 C-30.27344231 60.42155434 -12.71349861 32.10158399 0 0 Z " fill="#02B6D6" transform="translate(697,287)"/>
<path d="M0 0 C4.49045681 2.08389463 8.37122731 4.57726685 12.25 7.625 C12.81936279 8.06956543 13.38872559 8.51413086 13.9753418 8.97216797 C29.62164553 21.30914121 44.52377914 35.6483916 56 52 C56.40879395 52.5789502 56.81758789 53.15790039 57.23876953 53.75439453 C59.11111171 56.64213744 60.07462654 58.3930375 59.6484375 61.859375 C58.14715168 65.26720171 56.64103637 68.65745083 55 72 C54.65066406 72.72864258 54.30132813 73.45728516 53.94140625 74.20800781 C48.37557639 85.70077241 41.88792255 95.9782063 34 106 C32.96746094 107.34964844 32.96746094 107.34964844 31.9140625 108.7265625 C27.43105749 114.49042608 22.55625807 119.84733751 17.58984375 125.19140625 C15.50995593 127.44697086 13.49019103 129.72867887 11.5 132.0625 C5.20873763 139.30424085 -1.70631075 146.06471036 -9.0078125 152.28125 C-10.40130591 153.48347961 -11.7694189 154.71547441 -13.1171875 155.96875 C-20.30322261 162.64668162 -28.02548311 168.5330045 -35.87011719 174.40527344 C-37.82716792 175.87059386 -39.7771386 177.3448744 -41.7265625 178.8203125 C-60.45214888 192.88361003 -80.57473238 205.01264623 -101.02734375 216.37890625 C-102.38267212 217.13216187 -102.38267212 217.13216187 -103.76538086 217.90063477 C-106 219 -106 219 -108 219 C-108 218.34 -108 217.68 -108 217 C-108.69738281 216.76410156 -109.39476562 216.52820313 -110.11328125 216.28515625 C-113.51872508 214.76906556 -116.28220563 212.73074222 -119.1875 210.4375 C-119.75702393 209.99059814 -120.32654785 209.54369629 -120.91333008 209.08325195 C-122.61817105 207.73327773 -124.31127388 206.37006025 -126 205 C-126.8971875 204.27296875 -127.794375 203.5459375 -128.71875 202.796875 C-137.79215347 195.04428343 -148.22492898 183.53707928 -152 172 C-150.98246191 167.76833364 -147.59747496 166.09833784 -144.125 163.8125 C-142.94006868 163.01892063 -141.75650409 162.22329727 -140.57421875 161.42578125 C-139.97528809 161.02311035 -139.37635742 160.62043945 -138.75927734 160.20556641 C-135.0639988 157.6733314 -131.51797726 154.9401004 -127.94921875 152.234375 C-126.02294882 150.77500229 -124.08834482 149.32654748 -122.14453125 147.890625 C-114.17952754 142.00017691 -106.50190334 135.79207205 -98.84521484 129.50878906 C-97.22279744 128.18217626 -95.59066355 126.86746519 -93.95703125 125.5546875 C-88.09804032 120.83705844 -82.52093988 115.89782652 -77.01953125 110.7734375 C-74.79834225 108.70986194 -72.52403593 106.720353 -70.2265625 104.7421875 C-65.4796063 100.6032962 -61.01234094 96.20430148 -56.5625 91.75 C-55.30083008 90.48712158 -55.30083008 90.48712158 -54.01367188 89.19873047 C-49.05738358 84.19326499 -44.3670003 79.16626532 -40.0390625 73.60546875 C-38.03632721 71.0464181 -35.95142706 68.58676306 -33.82958984 66.12695312 C-17.36161042 46.99999481 -4.06398162 25.15974078 0 0 Z " fill="#FDC428" transform="translate(631,217)"/>
<path d="M0 0 C1.0594281 -0.00542313 1.0594281 -0.00542313 2.14025879 -0.01095581 C18.8413777 -0.04490117 35.19367651 1.96162227 51.5625 5.3125 C51.5625 5.9725 51.5625 6.6325 51.5625 7.3125 C49.98963316 8.72688406 48.35110004 10.06854401 46.6875 11.375 C42.92896047 14.37704367 39.28376006 17.42421076 35.75 20.6875 C31.37627979 24.66861856 26.81921222 28.3291632 22.14819336 31.94921875 C18.31132029 34.9256524 14.53638111 37.96377757 10.79199219 41.05566406 C2.3913701 47.98089323 -6.30253788 54.39890294 -15.17724609 60.70068359 C-17.38366668 62.27411076 -19.57859359 63.86213194 -21.76953125 65.45703125 C-51.70125492 87.24425167 -82.36845253 108.1376439 -114.23681641 127.00146484 C-116.86703997 128.56839413 -119.48627207 130.15298932 -122.10546875 131.73828125 C-147.26691523 146.94960905 -172.91847184 161.24730365 -198.9375 174.9375 C-199.89914062 175.44676025 -200.86078125 175.95602051 -201.8515625 176.48071289 C-206.30528009 178.8086844 -210.57791223 180.9356168 -215.4375 182.3125 C-215.88554196 175.61093618 -214.25838486 169.68684317 -212.5 163.25 C-212.18643555 162.10184814 -211.87287109 160.95369629 -211.54980469 159.77075195 C-205.72796779 139.16241679 -196.69015535 119.53285917 -185.4375 101.3125 C-186.4275 101.3125 -187.4175 101.3125 -188.4375 101.3125 C-186.76057817 97.28200367 -183.9615002 94.24794034 -181.125 91 C-177.31785849 86.57910338 -173.70394387 82.15584781 -170.4375 77.3125 C-171.39269531 77.17134766 -171.39269531 77.17134766 -172.3671875 77.02734375 C-176.59752082 76.04241882 -180.52706932 74.46520583 -184.5625 72.875 C-185.37332031 72.56240234 -186.18414062 72.24980469 -187.01953125 71.92773438 C-190.44832746 70.58738677 -193.35488672 69.36757552 -196.4375 67.3125 C-188.34398982 67.85780742 -180.3723135 68.5924372 -172.4375 70.3125 C-171.36628906 70.4671875 -170.29507813 70.621875 -169.19140625 70.78125 C-165.33302685 71.72577372 -163.34524327 72.56851092 -160.4375 75.3125 C-157.71645455 81.23137335 -156.91096463 87.85217053 -155.92431641 94.23925781 C-155.28089828 98.30111706 -154.48030963 102.32569315 -153.68164062 106.359375 C-152.89864699 110.33753213 -152.16744609 114.32430291 -151.4375 118.3125 C-149.36275872 114.70407967 -148.4905781 110.89549348 -147.5625 106.87890625 C-147.39250488 106.16395493 -147.22250977 105.4490036 -147.04736328 104.71238708 C-146.50605537 102.43433636 -145.97115962 100.15485361 -145.4375 97.875 C-144.90345822 95.59881561 -144.36790865 93.32303871 -143.82763672 91.04832458 C-143.49219934 89.63568212 -143.16030911 88.22219114 -142.83251953 86.80775452 C-140.52577007 77.08266036 -140.52577007 77.08266036 -137.66015625 75.0546875 C-127.1526875 70.83649932 -116.36904538 68.60904529 -105.25 66.625 C-103.3927832 66.28758789 -103.3927832 66.28758789 -101.49804688 65.94335938 C-98.47861523 65.39543162 -95.45846445 64.85190077 -92.4375 64.3125 C-93.0452124 64.21227539 -93.6529248 64.11205078 -94.27905273 64.00878906 C-104.56832213 62.29924105 -114.8461567 60.59069495 -125 58.1875 C-125.67023193 58.02926758 -126.34046387 57.87103516 -127.03100586 57.70800781 C-130.90522184 56.76334275 -134.67228716 55.6236527 -138.4375 54.3125 C-138.69140625 52.04296875 -138.69140625 52.04296875 -138.4375 49.3125 C-119.66528749 27.97843261 -84.85786451 15.13161099 -58.4375 7.3125 C-57.41140625 7.00828125 -56.3853125 6.7040625 -55.328125 6.390625 C-49.26949093 4.7504423 -43.12727179 3.69106606 -36.9375 2.6875 C-36.17832275 2.56415283 -35.41914551 2.44080566 -34.63696289 2.3137207 C-23.13611358 0.54445346 -11.62597314 0.04617809 0 0 Z " fill="#02B1DE" transform="translate(507.4375,179.6875)"/>
<path d="M0 0 C1.67542976 0.28604898 3.34385343 0.61781233 5 1 C5.15855469 1.65484375 5.31710937 2.3096875 5.48046875 2.984375 C11.08337669 24.90072209 22.54907361 43.65498745 38 60 C38.62003906 60.66128906 39.24007812 61.32257813 39.87890625 62.00390625 C42.72381599 64.95064721 45.56157352 67.485208 48.9375 69.8125 C49.948125 70.534375 50.95875 71.25625 52 72 C52 72.66 52 73.32 52 74 C49.79467773 75.58129883 49.79467773 75.58129883 46.68359375 77.45703125 C45.84535065 77.96580811 45.84535065 77.96580811 44.99017334 78.48486328 C43.14392384 79.6019879 41.29112965 80.70767058 39.4375 81.8125 C38.15198272 82.58468499 36.86658333 83.35706628 35.58129883 84.12963867 C16.74513137 95.41948722 -2.39144082 106.10760883 -22 116 C-23.14936035 116.58007812 -24.2987207 117.16015625 -25.48291016 117.7578125 C-40.68961404 125.39965351 -56.06870982 132.46939847 -71.8125 138.9375 C-72.56431549 139.24685486 -73.31613098 139.55620972 -74.09072876 139.87493896 C-86.59219851 145 -86.59219851 145 -89 145 C-92.0988702 134.65852985 -95.08782226 124.31935429 -97.3125 113.75 C-97.47137695 113.00194092 -97.63025391 112.25388184 -97.79394531 111.4831543 C-99.47151356 103.22896549 -100.15410068 95.10363708 -100.1328125 86.6875 C-100.13376923 85.83373779 -100.13472595 84.97997559 -100.13571167 84.1003418 C-100.13638726 82.30875575 -100.13457668 80.51716717 -100.13037109 78.72558594 C-100.125014 76.00710472 -100.13033735 73.28878868 -100.13671875 70.5703125 C-100.13605786 68.81770797 -100.13477647 67.06510355 -100.1328125 65.3125 C-100.13483673 64.51223389 -100.13686096 63.71196777 -100.13894653 62.88745117 C-100.11701766 57.52307404 -99.66809411 52.32352252 -99 47 C-97.63294922 46.50693359 -97.63294922 46.50693359 -96.23828125 46.00390625 C-44.82255238 28.64064878 -44.82255238 28.64064878 0 0 Z " fill="#0167AA" transform="translate(389,321)"/>
<path d="M0 0 C4.18628867 1.70642021 7.74931829 3.95045435 11.5078125 6.44140625 C12.62941772 7.17786377 12.62941772 7.17786377 13.77368164 7.92919922 C23.96737167 14.68127567 33.48046832 21.97603352 42.3828125 30.37890625 C43.14335938 31.075 43.90390625 31.77109375 44.6875 32.48828125 C53.04686854 40.41377253 59.64855919 49.88121412 64.3828125 60.37890625 C62.75472656 60.97058594 62.75472656 60.97058594 61.09375 61.57421875 C57.68093975 62.85271113 54.32987986 64.23838269 50.984375 65.68359375 C38.94581433 70.87598914 27.14790391 75.36363492 14.3828125 78.37890625 C13.50496094 78.59933594 12.62710938 78.81976562 11.72265625 79.046875 C-37.6727495 90.31546671 -90.96737637 78.25012109 -134.6171875 54.37890625 C-135.6071875 53.71890625 -136.5971875 53.05890625 -137.6171875 52.37890625 C-137.6171875 51.71890625 -137.6171875 51.05890625 -137.6171875 50.37890625 C-137.05547852 50.20351318 -136.49376953 50.02812012 -135.91503906 49.84741211 C-124.73385535 46.34677173 -113.6137275 42.73016848 -102.57226562 38.81005859 C-95.97344279 36.47642631 -89.33375807 34.35220527 -82.6171875 32.37890625 C-82.9471875 31.71890625 -83.2771875 31.05890625 -83.6171875 30.37890625 C-82.95251465 30.23630371 -82.2878418 30.09370117 -81.60302734 29.94677734 C-72.15907589 27.76667001 -63.27246657 24.46330977 -54.2421875 21.00390625 C-53.44380463 20.70054352 -52.64542175 20.39718079 -51.82284546 20.08462524 C-40.46154001 15.76323295 -11.15018549 -2.6460888 0 0 Z " fill="#0183AA" transform="translate(604.6171875,491.62109375)"/>
<path d="M0 0 C3.82529322 3.55158114 6.63664413 7.17782256 9.1875 11.75 C9.75126343 12.7565564 9.75126343 12.7565564 10.32641602 13.78344727 C13.84120501 20.29998585 16.67530238 27.07413261 19.4375 33.9375 C19.86248779 34.99098633 20.28747559 36.04447266 20.7253418 37.12988281 C23.04213066 43.04520794 24.80896865 48.75847504 26 55 C30.22478132 52.79057373 32.69923161 50.24015753 35.625 46.5 C40.35897606 40.48962766 40.35897606 40.48962766 43 38 C40.93959268 48.06789939 33.968808 55.87332256 27 63 C25.80503906 64.25296875 25.80503906 64.25296875 24.5859375 65.53125 C18.76006612 71.52357484 12.56555348 76.83879516 6 82 C4.64261719 83.10021484 4.64261719 83.10021484 3.2578125 84.22265625 C-17.97026285 101.08686995 -41.48004512 114.75386614 -65.30566406 127.55078125 C-67.75767801 128.86966081 -70.20347508 130.19936386 -72.6484375 131.53125 C-86.45992769 138.99406808 -100.6969483 145.54472076 -115 152 C-116.15838379 152.52464844 -117.31676758 153.04929687 -118.51025391 153.58984375 C-150.61493635 168.04889489 -183.63987539 180.27882876 -217.13632202 191.09489441 C-220.41701641 192.15436837 -223.69120669 193.2285299 -226.95507812 194.33886719 C-234.28453362 196.83101861 -241.59489743 199.07304418 -249.125 200.875 C-250.63489502 201.24226196 -250.63489502 201.24226196 -252.17529297 201.61694336 C-254.33117457 202.1408624 -256.48760058 202.6625457 -258.64453125 203.18212891 C-262.08144148 204.01985077 -265.50957245 204.88801759 -268.9375 205.76171875 C-300.91370405 213.83185145 -333.58264816 219.18283879 -366.625 219.3125 C-367.79168213 219.31805908 -368.95836426 219.32361816 -370.16040039 219.3293457 C-380.59414808 219.24113496 -390.53095028 217.54839914 -400.625 215 C-401.31722656 214.835 -402.00945312 214.67 -402.72265625 214.5 C-407.75584416 213.24415584 -407.75584416 213.24415584 -410 211 C-409.34837891 211.13857422 -408.69675781 211.27714844 -408.02539062 211.41992188 C-398.51223954 213.2396601 -389.15229456 213.48122749 -379.5 213.5 C-378.19841949 213.50451675 -378.19841949 213.50451675 -376.87054443 213.50912476 C-358.84061915 213.50521763 -341.66433268 210.98615214 -324.03546143 207.41186523 C-319.52843811 206.49989206 -315.01474742 205.62134966 -310.50146484 204.7409668 C-308.28159437 204.3030128 -306.0641924 203.85226209 -303.85009766 203.38598633 C-302.87991699 203.1877124 -301.90973633 202.98943848 -300.91015625 202.78515625 C-299.65924194 202.52037476 -299.65924194 202.52037476 -298.38305664 202.25024414 C-295.70853622 201.96939347 -293.61922396 202.46124491 -291 203 C-288.98415349 202.38290413 -286.98248715 201.71706982 -285 201 C-283.68 201 -282.36 201 -281 201 C-281 200.34 -281 199.68 -281 199 C-280.2251123 198.80889648 -279.45022461 198.61779297 -278.65185547 198.42089844 C-260.46889225 194.00735863 -260.46889225 194.00735863 -242.43969727 189.01757812 C-240.04961485 188.31051137 -237.65455983 187.62012546 -235.25585938 186.94287109 C-225.02322133 184.04065288 -215.09876134 180.60109427 -205.1875 176.75 C-204.0805629 176.32231323 -204.0805629 176.32231323 -202.95126343 175.88598633 C-183.64053209 168.41553108 -165.6116929 159.93215433 -147.68212891 149.53417969 C-145.26853659 148.15360312 -142.83906112 146.81794597 -140.38671875 145.5078125 C-127.35005903 138.53400248 -115.17979879 130.36522183 -103 122 C-102.28263672 121.50967285 -101.56527344 121.0193457 -100.82617188 120.51416016 C-87.68186896 111.49177582 -75.35722433 101.41885502 -63.71875 90.53125 C-61.23072012 88.21480839 -58.68917871 85.98116849 -56.125 83.75 C-30.27344231 60.42155434 -12.71349861 32.10158399 0 0 Z " fill="#48C242" transform="translate(697,287)"/>
<path d="M0 0 C1.01255859 0.52013672 2.02511719 1.04027344 3.06835938 1.57617188 C5.16053672 2.66533857 7.25171077 3.756435 9.34179688 4.84960938 C15.43837994 7.97675261 21.43270848 10.51345429 27.97338867 12.55957031 C30.21721622 13.27025382 32.36467784 14.06109893 34.54296875 14.9453125 C40.49519287 17.21187776 46.74083269 18.5418017 52.93359375 19.98046875 C53.60032104 20.13548859 54.26704834 20.29050842 54.95397949 20.45022583 C66.1598873 23.03021169 77.17273078 24.99011989 88.68359375 25.41796875 C90.15094971 25.47355957 90.15094971 25.47355957 91.64794922 25.53027344 C112.8404467 26.19243655 134.40912507 25.05611332 154.68359375 18.41796875 C155.66320068 18.10303467 155.66320068 18.10303467 156.66259766 17.78173828 C165.9808152 14.75765495 174.93507467 11.13788105 183.79614258 6.95800781 C184.50794678 6.62768555 185.21975098 6.29736328 185.953125 5.95703125 C186.57807861 5.66006348 187.20303223 5.3630957 187.84692383 5.05712891 C189.68359375 4.41796875 189.68359375 4.41796875 193.68359375 4.41796875 C184.53132692 24.81064096 152.60992065 40.34659591 133.68359375 50.41796875 C133.07 50.74522949 132.45640625 51.07249023 131.82421875 51.40966797 C130.10256563 52.31213234 128.36211041 53.17845016 126.62109375 54.04296875 C125.64011719 54.53023437 124.65914062 55.0175 123.6484375 55.51953125 C120.68359375 56.41796875 120.68359375 56.41796875 117.375 55.94140625 C113.39308353 55.37677471 110.92887467 55.90070665 107.10302734 56.86181641 C84.84332799 61.97862722 60.90535921 59.16306037 38.68359375 55.41796875 C37.8956543 55.28600098 37.10771484 55.1540332 36.29589844 55.01806641 C23.58725826 52.85334881 23.58725826 52.85334881 17.68359375 50.41796875 C15.71241057 49.88736762 13.73250411 49.38836708 11.74609375 48.91796875 C7.6454501 47.92433185 3.67747467 46.78429643 -0.31640625 45.41796875 C-0.97640625 45.41796875 -1.63640625 45.41796875 -2.31640625 45.41796875 C-2.82297912 40.09895358 -1.64250668 37.55312063 1.68359375 33.41796875 C4.52809106 30.85792117 7.25859967 29.07241504 10.68359375 27.41796875 C9.88695312 26.96357422 9.88695312 26.96357422 9.07421875 26.5 C2.43872871 22.5647185 -1.18600191 19.05191762 -3.31640625 11.41796875 C-3.60773438 12.0934375 -3.8990625 12.76890625 -4.19921875 13.46484375 C-7.36964219 20.36400419 -10.11129525 23.58965962 -17.19140625 26.66796875 C-17.89265625 26.91546875 -18.59390625 27.16296875 -19.31640625 27.41796875 C-18.12015625 27.93359375 -16.92390625 28.44921875 -15.69140625 28.98046875 C-11.33613485 31.16198615 -7.61475787 34.03282926 -5.31640625 38.41796875 C-5.6640625 40.63671875 -5.6640625 40.63671875 -6.31640625 42.41796875 C-6.31640625 41.75796875 -6.31640625 41.09796875 -6.31640625 40.41796875 C-8.03537109 40.28455078 -8.03537109 40.28455078 -9.7890625 40.1484375 C-14.57565977 39.5449787 -18.45721426 37.85218337 -22.75390625 35.73046875 C-23.500354 35.37033691 -24.24680176 35.01020508 -25.01586914 34.63916016 C-29.66163627 32.35555301 -34.03397478 29.88609604 -38.24609375 26.86328125 C-41.50893222 24.58545062 -44.98462168 22.67432166 -48.4453125 20.71484375 C-49.06277344 20.286875 -49.68023437 19.85890625 -50.31640625 19.41796875 C-50.31640625 18.75796875 -50.31640625 18.09796875 -50.31640625 17.41796875 C-50.87328125 17.33546875 -51.43015625 17.25296875 -52.00390625 17.16796875 C-55.07829471 16.17086979 -56.97883577 14.62567421 -59.31640625 12.41796875 C-59.31640625 11.42796875 -59.31640625 10.43796875 -59.31640625 9.41796875 C-55.82874936 7.39287765 -52.45317526 6.75795888 -48.50390625 6.04296875 C-39.26639975 4.2973783 -30.24639031 1.83885423 -21.21484375 -0.76171875 C-20.54130859 -0.9512915 -19.86777344 -1.14086426 -19.17382812 -1.33618164 C-17.29966332 -1.86404062 -15.42900431 -2.40430127 -13.55859375 -2.9453125 C-8.25017383 -3.98780942 -4.69900631 -2.45663228 0 0 Z " fill="#026497" transform="translate(475.31640625,547.58203125)"/>
<path d="M0 0 C0.66 0.33 1.32 0.66 2 1 C1.61521484 1.96873047 1.61521484 1.96873047 1.22265625 2.95703125 C0.87987725 7.6416776 3.11894167 10.72028961 5.4375 14.6875 C5.89688965 15.4911499 6.3562793 16.2947998 6.82958984 17.12280273 C10.38531172 23.22175931 14.3175627 28.71058008 19 34 C19.56460938 34.71800781 20.12921875 35.43601562 20.7109375 36.17578125 C29.19244165 46.60173505 42.22373627 56.53906871 55 61 C57.72207747 61.18917238 57.72207747 61.18917238 60 61 C56.44467682 66.13330224 51.78424703 69.41483239 46.8125 73.0625 C45.4831543 74.04778687 45.4831543 74.04778687 44.12695312 75.05297852 C27.49294964 87.33378363 10.41962739 98.86793043 -7 110 C-31.34590147 96.47449919 -46.72697293 68.64638393 -55 43 C-55.1753125 42.06671875 -55.350625 41.1334375 -55.53125 40.171875 C-55.83760052 37.80105708 -55.83760052 37.80105708 -58 36 C-57.47905762 35.7097998 -56.95811523 35.41959961 -56.42138672 35.12060547 C-37.04427402 24.28613623 -18.38757135 12.43022736 0 0 Z " fill="#02A2D0" transform="translate(449,284)"/>
<path d="M0 0 C-2.18894225 1.13500709 -4.186729 2.05465239 -6.5625 2.75 C-10.6264897 4.83409728 -11.60054784 8.89262195 -13.09765625 13.04296875 C-13.41605469 14.08066406 -13.73445313 15.11835938 -14.0625 16.1875 C-14.38347656 17.21230469 -14.70445312 18.23710937 -15.03515625 19.29296875 C-17.23977259 27.76333679 -18.08785084 35.35133008 -17.81420898 44.11035156 C-17.54360972 58.92231715 -17.54360972 58.92231715 -21.26171875 64.2265625 C-24.30534098 66.16579536 -27.19651577 67.56449192 -30.52929688 68.90722656 C-34.51215916 70.66881664 -38.17239004 72.95146398 -41.91015625 75.17700195 C-61.19938651 86.64219625 -80.91709299 97.44004704 -100.8125 107.8125 C-101.94550537 108.40554932 -103.07851074 108.99859863 -104.24584961 109.60961914 C-105.30553955 110.15739014 -106.36522949 110.70516113 -107.45703125 111.26953125 C-108.38491455 111.75010986 -109.31279785 112.23068848 -110.26879883 112.72583008 C-113.12591569 114.05874265 -115.99296334 115.06018 -119 116 C-119.44804196 109.29843618 -117.82088486 103.37434317 -116.0625 96.9375 C-115.74893555 95.78934814 -115.43537109 94.64119629 -115.11230469 93.45825195 C-109.29046779 72.84991679 -100.25265535 53.22035917 -89 35 C-89.99 35 -90.98 35 -92 35 C-90.32307817 30.96950367 -87.5240002 27.93544034 -84.6875 24.6875 C-80.88035849 20.26660338 -77.26644387 15.84334781 -74 11 C-74.63679688 10.90589844 -75.27359375 10.81179688 -75.9296875 10.71484375 C-80.16002082 9.72991882 -84.08956932 8.15270583 -88.125 6.5625 C-88.93582031 6.24990234 -89.74664062 5.93730469 -90.58203125 5.61523438 C-94.01082746 4.27488677 -96.91738672 3.05507552 -100 1 C-91.90648982 1.54530742 -83.9348135 2.2799372 -76 4 C-74.92878906 4.1546875 -73.85757813 4.309375 -72.75390625 4.46875 C-68.89552685 5.41327372 -66.90774327 6.25601092 -64 9 C-61.27895455 14.91887335 -60.47346463 21.53967053 -59.48681641 27.92675781 C-58.84339828 31.98861706 -58.04280963 36.01319315 -57.24414062 40.046875 C-56.46114699 44.02503213 -55.72994609 48.01180291 -55 52 C-52.92525872 48.39157967 -52.0530781 44.58299348 -51.125 40.56640625 C-50.87000732 39.49397926 -50.87000732 39.49397926 -50.60986328 38.39988708 C-50.06855537 36.12183636 -49.53365962 33.84235361 -49 31.5625 C-48.46595822 29.28631561 -47.93040865 27.01053871 -47.39013672 24.73582458 C-47.05469934 23.32318212 -46.72280911 21.90969114 -46.39501953 20.49525452 C-44.08827007 10.77016036 -44.08827007 10.77016036 -41.22265625 8.7421875 C-32.40622463 5.20286052 -23.51713319 3.00615332 -14.1875 1.3125 C-13.11145508 1.11515259 -13.11145508 1.11515259 -12.01367188 0.91381836 C-7.96210516 0.21196844 -4.10990017 -0.13549121 0 0 Z " fill="#03518F" transform="translate(411,246)"/>
<path d="M0 0 C0.029729 0.85996582 0.029729 0.85996582 0.06005859 1.73730469 C-0.07744851 19.49810377 -0.07744851 19.49810377 4.6875 36.1875 C6.61626323 40.32056407 6.34940069 43.68191779 5 48 C2.64123675 52.04359414 0.1291555 54.48058847 -4.125 56.4375 C-7 57 -7 57 -11 57 C-11 57.66 -11 58.32 -11 59 C-10.40832031 59.01417969 -9.81664062 59.02835937 -9.20703125 59.04296875 C-4.90681348 59.30252512 -2.59822002 59.53182781 0.875 62.25 C6.4720121 69.49319213 6.4720121 69.49319213 6 75 C6.66 75 7.32 75 8 75 C8.061875 73.948125 8.12375 72.89625 8.1875 71.8125 C9.13408616 67.3708265 10.59156258 65.88406243 14 63 C14.21398437 63.97066406 14.42796875 64.94132812 14.6484375 65.94140625 C16.04724868 70.83724537 18.79959421 74.75317443 21.625 78.9375 C22.3984375 80.10635742 22.3984375 80.10635742 23.1875 81.29882812 C24.45032894 83.20476439 25.72118849 85.10476687 27 87 C24.44754382 89.94641148 21.59879864 91.37483251 18.12109375 93.08203125 C17.52891052 93.37312775 16.93672729 93.66422424 16.32659912 93.96414185 C14.36754364 94.92203654 12.403182 95.86828452 10.4375 96.8125 C9.42896469 97.30014328 9.42896469 97.30014328 8.40005493 97.79763794 C-2.84878864 103.22206593 -14.26071262 108.19562426 -25.8125 112.9375 C-26.93750412 113.40030869 -26.93750412 113.40030869 -28.0852356 113.87246704 C-40.59239914 119 -40.59239914 119 -43 119 C-46.0988702 108.65852985 -49.08782226 98.31935429 -51.3125 87.75 C-51.47137695 87.00194092 -51.63025391 86.25388184 -51.79394531 85.4831543 C-53.47151356 77.22896549 -54.15410068 69.10363708 -54.1328125 60.6875 C-54.13376923 59.83373779 -54.13472595 58.97997559 -54.13571167 58.1003418 C-54.13638726 56.30875575 -54.13457668 54.51716717 -54.13037109 52.72558594 C-54.125014 50.00710472 -54.13033735 47.28878868 -54.13671875 44.5703125 C-54.13605786 42.81770797 -54.13477647 41.06510355 -54.1328125 39.3125 C-54.13483673 38.51223389 -54.13686096 37.71196777 -54.13894653 36.88745117 C-54.11701766 31.52307404 -53.66809411 26.32352252 -53 21 C-52.08863281 20.67128906 -51.17726563 20.34257812 -50.23828125 20.00390625 C-34.98036533 14.42862893 -20.01967173 8.07645521 -5.3984375 0.99609375 C-3 0 -3 0 0 0 Z " fill="#034A84" transform="translate(343,347)"/>
<path d="M0 0 C0.33547075 9.24025996 -0.50586392 17.71756088 -2.4375 26.75 C-2.70336914 28.00425781 -2.96923828 29.25851562 -3.24316406 30.55078125 C-10.91373777 64.98583695 -27.34764239 101.12776775 -53 126 C-53.68964844 124.91203125 -54.37929688 123.8240625 -55.08984375 122.703125 C-70.15547627 99.07980326 -86.1373511 81.68749666 -110 67 C-108.64931628 64.29863256 -107.23543738 64.00191917 -104.50390625 62.75 C-103.56232666 62.31196045 -102.62074707 61.8739209 -101.65063477 61.42260742 C-100.63155029 60.95314697 -99.61246582 60.48368652 -98.5625 60 C-88.94696552 55.48048418 -79.60266868 50.68637224 -70.40087891 45.37939453 C-67.8113688 43.89162434 -65.2086332 42.42857904 -62.60546875 40.96484375 C-50.88298508 34.31264192 -39.52924447 27.2144055 -28.3125 19.75 C-27.38080994 19.13236786 -27.38080994 19.13236786 -26.43029785 18.5022583 C-19.07007014 13.61082553 -11.92021683 8.53623373 -4.98152161 3.05950928 C-1.09464742 0 -1.09464742 0 0 0 Z " fill="#2C8F2C" transform="translate(731,418)"/>
<path d="M0 0 C8.97320452 1.07866047 14.51789644 10.45465435 19.8125 17.125 C20.26834473 17.69822998 20.72418945 18.27145996 21.19384766 18.86206055 C22.50317859 20.54924076 23.76395876 22.25848503 25 24 C25.41894531 24.58910156 25.83789062 25.17820312 26.26953125 25.78515625 C28.13398965 28.66372884 29.07293543 30.40679184 28.6484375 33.859375 C27.14715168 37.26720171 25.64103637 40.65745083 24 44 C23.65066406 44.72864258 23.30132813 45.45728516 22.94140625 46.20800781 C17.37557639 57.70077241 10.88792255 67.9782063 3 78 C1.96746094 79.34964844 1.96746094 79.34964844 0.9140625 80.7265625 C-3.56894251 86.49042608 -8.44374193 91.84733751 -13.41015625 97.19140625 C-15.49004407 99.44697086 -17.50980897 101.72867887 -19.5 104.0625 C-25.79126237 111.30424085 -32.70631075 118.06471036 -40.0078125 124.28125 C-41.40130591 125.48347961 -42.7694189 126.71547441 -44.1171875 127.96875 C-51.30322261 134.64668162 -59.02548311 140.5330045 -66.87011719 146.40527344 C-68.82716792 147.87059386 -70.7771386 149.3448744 -72.7265625 150.8203125 C-91.45214888 164.88361003 -111.57473238 177.01264623 -132.02734375 188.37890625 C-133.38267212 189.13216187 -133.38267212 189.13216187 -134.76538086 189.90063477 C-137 191 -137 191 -139 191 C-139 190.34 -139 189.68 -139 189 C-139.69738281 188.76410156 -140.39476562 188.52820313 -141.11328125 188.28515625 C-144.51872508 186.76906556 -147.28220563 184.73074222 -150.1875 182.4375 C-150.75702393 181.99059814 -151.32654785 181.54369629 -151.91333008 181.08325195 C-153.61817105 179.73327773 -155.31127388 178.37006025 -157 177 C-157.8971875 176.27296875 -158.794375 175.5459375 -159.71875 174.796875 C-168.79215347 167.04428343 -179.22492898 155.53707928 -183 144 C-181.9705416 140.65426021 -180.99981207 139.99987472 -178 138 C-169.2684622 138.35053619 -160.70685727 141.2726646 -152.28857422 143.48608398 C-140.0535626 146.69104053 -127.7882748 149.41758485 -115.0625 149.3125 C-114.30799561 149.30686035 -113.55349121 149.3012207 -112.77612305 149.29541016 C-94.06898123 148.89826432 -78.35841422 142.17470854 -63 132 C-62.00355469 131.360625 -61.00710938 130.72125 -59.98046875 130.0625 C-46.08386565 121.02879733 -32.49935255 110.92732783 -22 98 C-21.21625 97.04222656 -20.4325 96.08445312 -19.625 95.09765625 C-4.06548748 75.71115047 9.1904008 50.47170134 6.80419922 24.90185547 C5.66194345 16.26543485 3.35725304 8.04377378 0 0 Z " fill="#F0920F" transform="translate(662,245)"/>
<path d="M0 0 C1 3 1 3 -0.2734375 5.9765625 C-8.8199455 21.3945486 -22.12574292 33.3720296 -36 44 C-36.89589844 44.72445312 -37.79179688 45.44890625 -38.71484375 46.1953125 C-59.92948443 63.08896855 -83.47424384 76.75075023 -107.30566406 89.55078125 C-109.75767801 90.86966081 -112.20347508 92.19936386 -114.6484375 93.53125 C-128.45992769 100.99406808 -142.6969483 107.54472076 -157 114 C-158.15838379 114.52464844 -159.31676758 115.04929687 -160.51025391 115.58984375 C-192.61493635 130.04889489 -225.63987539 142.27882876 -259.13632202 153.09489441 C-262.41701641 154.15436837 -265.69120669 155.2285299 -268.95507812 156.33886719 C-276.28453362 158.83101861 -283.59489743 161.07304418 -291.125 162.875 C-292.63489502 163.24226196 -292.63489502 163.24226196 -294.17529297 163.61694336 C-296.33117457 164.1408624 -298.48760058 164.6625457 -300.64453125 165.18212891 C-304.08144148 166.01985077 -307.50957245 166.88801759 -310.9375 167.76171875 C-342.91370405 175.83185145 -375.58264816 181.18283879 -408.625 181.3125 C-409.79168213 181.31805908 -410.95836426 181.32361816 -412.16040039 181.3293457 C-422.59414808 181.24113496 -432.53095028 179.54839914 -442.625 177 C-443.31722656 176.835 -444.00945312 176.67 -444.72265625 176.5 C-449.75584416 175.24415584 -449.75584416 175.24415584 -452 173 C-451.34837891 173.13857422 -450.69675781 173.27714844 -450.02539062 173.41992188 C-440.51223954 175.2396601 -431.15229456 175.48122749 -421.5 175.5 C-420.19841949 175.50451675 -420.19841949 175.50451675 -418.87054443 175.50912476 C-400.84061915 175.50521763 -383.66433268 172.98615214 -366.03546143 169.41186523 C-361.52843811 168.49989206 -357.01474742 167.62134966 -352.50146484 166.7409668 C-350.28159437 166.3030128 -348.0641924 165.85226209 -345.85009766 165.38598633 C-344.87991699 165.1877124 -343.90973633 164.98943848 -342.91015625 164.78515625 C-341.65924194 164.52037476 -341.65924194 164.52037476 -340.38305664 164.25024414 C-337.70853622 163.96939347 -335.61922396 164.46124491 -333 165 C-330.98415349 164.38290413 -328.98248715 163.71706982 -327 163 C-325.68 163 -324.36 163 -323 163 C-323 162.34 -323 161.68 -323 161 C-322.2251123 160.80889648 -321.45022461 160.61779297 -320.65185547 160.42089844 C-302.46718238 156.00791658 -302.46718238 156.00791658 -284.43701172 151.01611328 C-282.05634826 150.31229731 -279.6702156 149.62681905 -277.2800293 148.95605469 C-266.77742665 145.99188586 -256.65269844 142.36258799 -246.5 138.375 C-223.28206529 129.31980198 -223.28206529 129.31980198 -216 128 C-201.4574579 124.44156199 -188.02886606 119.6543358 -175.04296875 112.1015625 C-172.88555903 110.93829378 -170.72796267 110.0582544 -168.4375 109.1875 C-161.81993567 106.63602743 -155.57246616 103.35416466 -149.25976562 100.14160156 C-146.9459273 98.97268324 -144.6231094 97.82372156 -142.296875 96.6796875 C-130.59460288 90.91299357 -119.1181754 84.7950102 -107.70068359 78.48486328 C-105.08539525 77.04695118 -102.46082881 75.62787891 -99.83203125 74.21484375 C-88.92758555 68.33202969 -78.40198448 62.00999468 -67.99755859 55.28369141 C-65.43452499 53.6366087 -62.84056804 52.04082054 -60.25 50.4375 C-35.17324541 34.70656223 -35.17324541 34.70656223 -19 11 C-18.34 11 -17.68 11 -17 11 C-16.67 12.98 -16.34 14.96 -16 17 C-11.77755073 14.78788498 -9.26033365 12.22357935 -6.3125 8.5 C-5.54550781 7.5409375 -4.77851562 6.581875 -3.98828125 5.59375 C-2.59509493 3.77631245 -1.27025708 1.90538561 0 0 Z " fill="#26834C" transform="translate(739,325)"/>
<path d="M0 0 C7.66314096 5.26202346 12.49103485 12.06456272 15 21 C16.16820142 32.34242072 14.40524544 41.70674457 7.625 50.9375 C2.21794145 57.35052293 -3.79344784 60.5462077 -12 62 C-23.71447067 62.87122696 -33.06690312 62.62687281 -42.3125 54.75 C-46.16199528 51.07358281 -48.77552031 47.81970599 -51 43 C-51.391875 42.154375 -51.78375 41.30875 -52.1875 40.4375 C-55.52466426 30.42600723 -54.47760584 21.42947522 -50 12 C-46.32557781 5.52229522 -41.46344954 1.577185 -35 -2 C-34.39671875 -2.34160156 -33.7934375 -2.68320312 -33.171875 -3.03515625 C-22.57304643 -7.98895656 -9.74787491 -5.67670362 0 0 Z " fill="#086396" transform="translate(302,688)"/>
<path d="M0 0 C6.27 -0.0825 12.54 -0.165 19 -0.25 C20.96324219 -0.28641602 22.92648437 -0.32283203 24.94921875 -0.36035156 C26.52863476 -0.3720486 28.10806295 -0.38223801 29.6875 -0.390625 C30.88922852 -0.4213208 30.88922852 -0.4213208 32.11523438 -0.45263672 C39.42290351 -0.45710351 44.42104361 1.85086968 50 6.5 C52.8644858 10.30636757 52.62549093 14.5512087 52.42578125 19.14453125 C51.81914807 23.21286934 50.86428734 25.05614912 48 28 C45.75 28.875 45.75 28.875 44 29 C44 29.66 44 30.32 44 31 C44.8353125 31.12375 44.8353125 31.12375 45.6875 31.25 C49.32344633 32.42922584 52.07037837 34.52944871 54.12109375 37.7734375 C56.10778365 42.80638524 56.05033143 49.12943401 54.1953125 54.19921875 C50.73071407 59.70673556 45.15935105 61.81895508 39.10418701 63.53831482 C35.61384406 64.3041401 32.0721267 64.12103007 28.515625 64.09765625 C27.7922998 64.09664917 27.06897461 64.09564209 26.32373047 64.09460449 C23.63247076 64.08938887 20.94123372 64.07542762 18.25 64.0625 C9.21625 64.0315625 9.21625 64.0315625 0 64 C0 42.88 0 21.76 0 0 Z " fill="#066194" transform="translate(327,685)"/>
<path d="M0 0 C1.622775 2.08947533 2.92677551 4.04378051 4.25 6.3125 C5.03215052 7.5968873 5.81735881 8.87941705 6.60546875 10.16015625 C7.00040527 10.80484863 7.3953418 11.44954102 7.80224609 12.11376953 C10.18026376 15.85868688 12.88584203 19.35834155 15.56640625 22.890625 C17 25 17 25 17 27 C17.66 27 18.32 27 19 27 C20.75413583 28.94401651 22.34122908 30.99175648 23.953125 33.0546875 C26.57338862 35.54493804 28.45231079 36.30872232 32 37 C35.40845146 36.35430668 35.40845146 36.35430668 38.75 35.0625 C40.81741571 34.32852022 42.89852266 33.62986268 45 33 C45.66 33.33 46.32 33.66 47 34 C43.01811282 35.71767682 39.03520597 37.41037341 35 39 C36.98 39 38.96 39 41 39 C36.96274913 41.26086048 32.31414342 43.50973602 27.66577148 42.48583984 C24.39452374 41.88965127 22.03765788 42.36312361 18.78515625 43.0390625 C17.55547119 43.28769043 16.32578613 43.53631836 15.05883789 43.79248047 C14.40771027 43.92829529 13.75658264 44.06411011 13.08572388 44.20404053 C9.62417491 44.92426326 6.15566527 45.60934812 2.6875 46.296875 C1.61647789 46.51009903 1.61647789 46.51009903 0.52381897 46.72763062 C-7.1086418 48.23777862 -14.76571657 49.58135475 -22.4375 50.875 C-23.67943115 51.08979004 -24.9213623 51.30458008 -26.20092773 51.52587891 C-32.21803226 52.52948934 -37.89931588 53.25703006 -44 53 C-44 52.34 -44 51.68 -44 51 C-44.825 50.95875 -45.65 50.9175 -46.5 50.875 C-55.24642558 48.6883936 -63.37788561 40.12728257 -68.45703125 32.9375 C-71 28.62433746 -71 28.62433746 -71 26 C-65.48827805 23.9762576 -59.96801103 21.98861768 -54.41503906 20.08056641 C-38.19509672 14.47074911 -22.20074216 8.05855541 -6.57421875 0.9609375 C-4 0 -4 0 0 0 Z " fill="#0381A7" transform="translate(375,448)"/>
<path d="M0 0 C0.23332031 0.70640625 0.46664063 1.4128125 0.70703125 2.140625 C3.33853821 9.54231949 6.61603822 16.36188371 10.375 23.25 C10.82077393 24.07661133 11.26654785 24.90322266 11.72583008 25.75488281 C14.5718531 30.87782642 17.75090431 35.45408165 21.47119141 39.98339844 C22.93839013 41.91873243 23.99331697 43.79629731 25 46 C25.66 46 26.32 46 27 46 C28.18567891 47.44215555 29.36893448 48.88640312 30.53710938 50.34277344 C32.94010612 53.06499338 35.78160978 55.05985663 38.75 57.125 C39.36182129 57.55731934 39.97364258 57.98963867 40.60400391 58.43505859 C45.19564988 61.60924667 49.76647827 64.01487107 55 66 C55 66.66 55 67.32 55 68 C53.56982422 69.18579102 53.56982422 69.18579102 51.5546875 70.50390625 C50.81331543 70.99342773 50.07194336 71.48294922 49.30810547 71.98730469 C48.50518066 72.50711914 47.70225586 73.02693359 46.875 73.5625 C45.66094482 74.35962402 45.66094482 74.35962402 44.42236328 75.17285156 C41.95356605 76.79025576 39.47810549 78.39690081 37 80 C36.26523437 80.47614746 35.53046875 80.95229492 34.7734375 81.44287109 C30.85839414 83.97683525 26.93391839 86.49544746 23 89 C-1.34590147 75.47449919 -16.72697293 47.64638393 -25 22 C-25.1753125 21.06671875 -25.350625 20.1334375 -25.53125 19.171875 C-25.83760052 16.80105708 -25.83760052 16.80105708 -28 15 C-27.39003174 14.65219482 -26.78006348 14.30438965 -26.15161133 13.94604492 C-23.3715801 12.36043661 -20.59203592 10.7739764 -17.8125 9.1875 C-16.85279297 8.64029297 -15.89308594 8.09308594 -14.90429688 7.52929688 C-13.97294922 6.99755859 -13.04160156 6.46582031 -12.08203125 5.91796875 C-11.22843018 5.43094482 -10.3748291 4.9439209 -9.49536133 4.44213867 C-7.74751858 3.43201176 -6.01940927 2.38731973 -4.30737305 1.31762695 C-2 0 -2 0 0 0 Z " fill="#0286C5" transform="translate(419,305)"/>
<path d="M0 0 C-2.18894225 1.13500709 -4.186729 2.05465239 -6.5625 2.75 C-10.6264897 4.83409728 -11.60054784 8.89262195 -13.09765625 13.04296875 C-13.57525391 14.59951172 -13.57525391 14.59951172 -14.0625 16.1875 C-14.38347656 17.21230469 -14.70445312 18.23710937 -15.03515625 19.29296875 C-17.23977259 27.76333679 -18.08785084 35.35133008 -17.81420898 44.11035156 C-17.54360972 58.92231715 -17.54360972 58.92231715 -21.26171875 64.2265625 C-24.28312407 66.15163994 -27.13779086 67.5285625 -30.44580078 68.85888672 C-35.39936791 71.07194089 -39.9813607 74.0104629 -44.63748169 76.7833252 C-51.95893614 81.12000264 -59.33644145 85.29874362 -67 89 C-68.56594397 87.43405603 -68.16994611 85.92668297 -68.1875 83.75 C-68.04183158 72.37167808 -66.42367542 58.63551313 -60 49 C-58 49 -58 49 -56.375 50.5 C-55.92125 50.995 -55.4675 51.49 -55 52 C-52.92525872 48.39157967 -52.0530781 44.58299348 -51.125 40.56640625 C-50.95500488 39.85145493 -50.78500977 39.1365036 -50.60986328 38.39988708 C-50.06855537 36.12183636 -49.53365962 33.84235361 -49 31.5625 C-48.46595822 29.28631561 -47.93040865 27.01053871 -47.39013672 24.73582458 C-47.05469934 23.32318212 -46.72280911 21.90969114 -46.39501953 20.49525452 C-44.08827007 10.77016036 -44.08827007 10.77016036 -41.22265625 8.7421875 C-32.40622463 5.20286052 -23.51713319 3.00615332 -14.1875 1.3125 C-13.11145508 1.11515259 -13.11145508 1.11515259 -12.01367188 0.91381836 C-7.96210516 0.21196844 -4.10990017 -0.13549121 0 0 Z " fill="#026AB1" transform="translate(411,246)"/>
<path d="M0 0 C2.77789533 1.5900227 5.45716223 3.29468837 8.125 5.0625 C8.87056152 5.55129639 9.61612305 6.04009277 10.38427734 6.54370117 C19.36026761 12.4823614 27.94056613 18.85641089 36 26 C35.505 27.485 35.505 27.485 35 29 C32.26416198 30.15828203 29.63610376 31.11198702 26.8125 32 C26.07580078 32.2475 25.33910156 32.495 24.58007812 32.75 C10.67672642 37.26300681 -2.12381704 38.50701511 -16.625 38.375 C-17.50985077 38.37101196 -18.39470154 38.36702393 -19.30636597 38.36291504 C-32.06004855 38.29538408 -44.53215733 37.9260036 -57 35 C-57.73508789 34.83419434 -58.47017578 34.66838867 -59.22753906 34.49755859 C-63.53894326 33.50629132 -67.83422692 32.50211088 -72 31 C-72.33 30.34 -72.66 29.68 -73 29 C-71.95199219 28.59007812 -70.90398438 28.18015625 -69.82421875 27.7578125 C-68.44523991 27.21372561 -67.06633764 26.66944462 -65.6875 26.125 C-64.99720703 25.85558594 -64.30691406 25.58617187 -63.59570312 25.30859375 C-60.48986901 24.07826333 -57.79017305 22.86011537 -55 21 C-54.67 20.01 -54.34 19.02 -54 18 C-51.63354492 16.79248047 -51.63354492 16.79248047 -48.48046875 15.6171875 C-47.3217627 15.17592529 -46.16305664 14.73466309 -44.96923828 14.2800293 C-43.70872931 13.81149661 -42.4481484 13.34315742 -41.1875 12.875 C-38.62330195 11.90751494 -36.06272077 10.93084795 -33.50390625 9.94921875 C-32.54451141 9.58190392 -32.54451141 9.58190392 -31.56573486 9.20716858 C-24.95479062 6.64677504 -18.53971033 3.67485219 -12.21948242 0.46630859 C-7.42134046 -1.8431922 -4.97975246 -2.59471312 0 0 Z " fill="#02A7C7" transform="translate(608,493)"/>
<path d="M0 0 C13 0 13 0 15.8515625 2.1328125 C16.43679688 3.12023437 17.02203125 4.10765625 17.625 5.125 C18.33011719 6.22199219 19.03523437 7.31898438 19.76171875 8.44921875 C20.12056152 9.0323584 20.4794043 9.61549805 20.84912109 10.21630859 C22.83157302 13.2888147 25.14510765 16.09319059 27.4375 18.9375 C32.70366874 25.56564494 37.83736134 32.28856974 43 39 C43.33 26.13 43.66 13.26 44 0 C48.62 0 53.24 0 58 0 C58 21.45 58 42.9 58 65 C46 65 46 65 42.66015625 62.0625 C41.75495521 60.73429219 40.89044521 59.37769069 40.0625 58 C39.07551435 56.52862656 38.08449321 55.05995358 37.08984375 53.59375 C36.58952637 52.83449219 36.08920898 52.07523438 35.57373047 51.29296875 C32.98005565 47.51391292 30.0556721 44.02000346 27.125 40.5 C22.93257514 35.4290701 18.95408987 30.27211983 15 25 C14.67 38.2 14.34 51.4 14 65 C9.38 65 4.76 65 0 65 C0 43.55 0 22.1 0 0 Z " fill="#378726" transform="translate(775,684)"/>
<path d="M0 0 C0.94875 0.7425 1.8975 1.485 2.875 2.25 C1.49311547 5.46043882 -0.04921903 7.29936365 -2.75 9.5 C-3.38164062 10.02078125 -4.01328125 10.5415625 -4.6640625 11.078125 C-5.14617187 11.46484375 -5.62828125 11.8515625 -6.125 12.25 C-6.74246094 11.90066406 -7.35992187 11.55132813 -7.99609375 11.19140625 C-15.38835173 7.21961467 -21.50593311 5.02750719 -29.8125 7.25 C-35.4143827 9.38498327 -38.70343772 13.29451828 -41.26171875 18.61328125 C-43.26993609 24.74697674 -43.16563276 31.86297667 -40.4375 37.75 C-37.47393547 42.77971164 -33.59301686 45.39576629 -28.125 47.25 C-21.13795764 47.98297311 -15.31767369 47.62782201 -9.125 44.25 C-8.63 39.3 -8.63 39.3 -8.125 34.25 C-9.73181641 34.26740234 -9.73181641 34.26740234 -11.37109375 34.28515625 C-12.76822743 34.29453299 -14.16536299 34.30363331 -15.5625 34.3125 C-16.26955078 34.32087891 -16.97660156 34.32925781 -17.70507812 34.33789062 C-19.51193559 34.34653588 -21.31887603 34.30220011 -23.125 34.25 C-23.455 33.92 -23.785 33.59 -24.125 33.25 C-24.125 29.62 -24.125 25.99 -24.125 22.25 C-14.555 22.25 -4.985 22.25 4.875 22.25 C5.1225 28.994375 5.1225 28.994375 5.375 35.875 C5.44783203 37.28217285 5.52066406 38.6893457 5.59570312 40.13916016 C5.75550165 49.11236298 5.75550165 49.11236298 3.20800781 52.40380859 C1.15470913 53.96551948 -0.80610964 55.12799029 -3.125 56.25 C-3.86153809 56.66926758 -4.59807617 57.08853516 -5.35693359 57.52050781 C-14.22076225 62.37170075 -27.3634211 61.91001327 -36.83984375 59.1796875 C-46.19792657 54.86057235 -52.3944935 47.7968876 -56.125 38.25 C-58.57866731 30.64363133 -58.17260599 20.7423459 -55.2265625 13.3359375 C-50.66227159 4.69291854 -43.85256442 -2.30272531 -34.5625 -5.625 C-22.06913778 -8.83977888 -10.52175997 -7.35684811 0 0 Z " fill="#096498" transform="translate(184.125,689.75)"/>
<path d="M0 0 C4.62 0 9.24 0 14 0 C14.49290527 1.12680176 14.98581055 2.25360352 15.49365234 3.41455078 C17.78549045 8.65221961 20.07995886 13.88873402 22.375 19.125 C22.9900943 20.52892502 22.9900943 20.52892502 23.61761475 21.96121216 C28.76813112 33.71227595 33.93631551 45.45083764 39.35693359 57.08056641 C42 62.79475977 42 62.79475977 42 65 C37.05 65 32.1 65 27 65 C25.35 60.71 23.7 56.42 22 52 C11.77 51.67 1.54 51.34 -9 51 C-9.99 53.97 -10.98 56.94 -12 60 C-12.99 62.475 -12.99 62.475 -14 65 C-18.62 65 -23.24 65 -28 65 C-27.27817955 61.39089776 -26.73161815 59.06148524 -25.26928711 55.86254883 C-24.91478989 55.08015335 -24.56029266 54.29775787 -24.1950531 53.49165344 C-23.80970901 52.65522812 -23.42436493 51.8188028 -23.02734375 50.95703125 C-22.62600723 50.07456223 -22.22467072 49.1920932 -21.81117249 48.28288269 C-20.52487482 45.45714501 -19.23144112 42.63474465 -17.9375 39.8125 C-16.67461039 37.04588163 -15.41321893 34.27858394 -14.15200806 31.51119995 C-13.32155189 29.68924212 -12.49048073 27.86756448 -11.65878296 26.0461731 C-7.710589 17.39148265 -3.84385785 8.70144359 0 0 Z " fill="#086496" transform="translate(413,684)"/>
<path d="M0 0 C4.95 0 9.9 0 15 0 C15.39074707 0.97485352 15.78149414 1.94970703 16.18408203 2.95410156 C21.46760143 16.01828516 27.30412549 28.81139972 33.19140625 41.61230469 C34.46286995 44.38011037 35.72788275 47.15079351 36.9921875 49.921875 C37.57490921 51.18121857 37.57490921 51.18121857 38.16940308 52.46600342 C38.52712799 53.25162659 38.88485291 54.03724976 39.25341797 54.84667969 C39.72471634 55.87230011 39.72471634 55.87230011 40.20553589 56.91864014 C41 59 41 59 42 64 C37.38 64 32.76 64 28 64 C26.02 59.71 24.04 55.42 22 51 C12.1 51 2.2 51 -8 51 C-9.98 55.29 -11.96 59.58 -14 64 C-18.62 64 -23.24 64 -28 64 C-27.22586765 60.12933824 -26.5383237 57.66094755 -24.91796875 54.2109375 C-24.48621338 53.28216797 -24.05445801 52.35339844 -23.60961914 51.39648438 C-23.14031982 50.39939453 -22.67102051 49.40230469 -22.1875 48.375 C-21.18860172 46.22726064 -20.19126693 44.07879358 -19.1953125 41.9296875 C-18.67356445 40.80401367 -18.15181641 39.67833984 -17.61425781 38.51855469 C-14.35272114 31.40947021 -11.21069776 24.24670813 -8.0612793 17.08740234 C-5.51113473 11.31252238 -2.88319785 5.61644214 0 0 Z " fill="#328222" transform="translate(613,685)"/>
<path d="M0 0 C-2.19522579 2.19522579 -3.22407878 2.50937043 -6.15625 3.296875 C-7.00493652 3.53003418 -7.85362305 3.76319336 -8.72802734 4.00341797 C-10.10015381 4.37297607 -10.10015381 4.37297607 -11.5 4.75 C-46.83999349 14.62343188 -68.34526145 28.05586044 -89 59 C-88.67 59.66 -88.34 60.32 -88 61 C-95.21569163 61.32678163 -101.87424425 60.09050299 -108.9375 58.6875 C-110.06607422 58.47416016 -111.19464844 58.26082031 -112.35742188 58.04101562 C-118.77826785 56.78971638 -124.84753788 55.22480337 -131 53 C-131.25390625 50.73046875 -131.25390625 50.73046875 -131 48 C-112.22778749 26.66593261 -77.42036451 13.81911099 -51 6 C-49.97390625 5.69578125 -48.9478125 5.3915625 -47.890625 5.078125 C-32.01951321 0.78152567 -16.38061865 -0.466045 0 0 Z " fill="#047EC8" transform="translate(500,181)"/>
<path d="M0 0 C16.17 0 32.34 0 49 0 C49 4.29 49 8.58 49 13 C37.45 13 25.9 13 14 13 C14 17.62 14 22.24 14 27 C24.56 27 35.12 27 46 27 C46 30.63 46 34.26 46 38 C35.44 38 24.88 38 14 38 C14 42.95 14 47.9 14 53 C25.55 53 37.1 53 49 53 C49 56.96 49 60.92 49 65 C32.83 65 16.66 65 0 65 C0 43.55 0 22.1 0 0 Z " fill="#358425" transform="translate(716,684)"/>
<path d="M0 0 C1.35034857 4.0510457 0.19529555 5.47972856 -1.578125 9.21484375 C-6.79828704 19.44005126 -12.41378938 28.3164982 -20 37 C-20.5775 37.73347656 -21.155 38.46695313 -21.75 39.22265625 C-28.24615311 47.21234456 -36.75447554 52.95745019 -45 59 C-46.36985906 60.01813849 -47.73965348 61.03636398 -49.109375 62.0546875 C-50.36353462 62.97538858 -51.61868984 63.89473553 -52.875 64.8125 C-53.45137207 65.23909912 -54.02774414 65.66569824 -54.62158203 66.10522461 C-58.65083744 69 -58.65083744 69 -62 69 C-63.4453125 67.85546875 -63.4453125 67.85546875 -65.125 66.1875 C-71.6844281 60.1726282 -79.4846436 55.71117624 -87 51 C-85.64931628 48.29863256 -84.23543738 48.00191917 -81.50390625 46.75 C-80.56232666 46.31196045 -79.62074707 45.8739209 -78.65063477 45.42260742 C-77.63155029 44.95314697 -76.61246582 44.48368652 -75.5625 44 C-65.96203357 39.4875665 -56.62860757 34.70328966 -47.44042969 29.40576172 C-44.72947825 27.84417125 -42.00897824 26.29982583 -39.2890625 24.75390625 C-25.81148444 17.04078864 -12.79727795 8.79408905 0 0 Z " fill="#40B63A" transform="translate(708,434)"/>
<path d="M0 0 C18.15 0 36.3 0 55 0 C55 4.29 55 8.58 55 13 C48.4 13 41.8 13 35 13 C35 30.16 35 47.32 35 65 C30.38 65 25.76 65 21 65 C21 47.84 21 30.68 21 13 C14.07 13 7.14 13 0 13 C0 8.71 0 4.42 0 0 Z " fill="#368625" transform="translate(841,684)"/>
<path d="M0 0 C5.30729157 5.2563823 8.28258205 9.56006941 8.4375 17.1875 C8.32256539 23.58792137 7.11327731 28.05169647 3 33 C-0.54990537 36.36391944 -4.03665344 38.64547525 -9 39 C-9.680625 39.061875 -10.36125 39.12375 -11.0625 39.1875 C-16.74212554 39.49450679 -20.54088748 38.5784378 -25 35 C-30.40472172 29.71811287 -32.99117768 23.51010209 -33.4375 15.9375 C-32.72358295 9.51224652 -30.43400277 5.02941248 -25.6875 0.625 C-17.98531707 -5.37648861 -8.06761102 -5.37840734 0 0 Z " fill="#FAFBFC" transform="translate(295,699)"/>
<path d="M0 0 C17.82 0 35.64 0 54 0 C54 3.96 54 7.92 54 12 C47.4 12 40.8 12 34 12 C34 28.83 34 45.66 34 63 C29.71 63 25.42 63 21 63 C21 46.17 21 29.34 21 12 C14.07 12 7.14 12 0 12 C0 8.04 0 4.08 0 0 Z " fill="#2F7E20" transform="translate(535,685)"/>
<path d="M0 0 C4.62 0 9.24 0 14 0 C14 17.49 14 34.98 14 53 C24.89 53 35.78 53 47 53 C47 56.96 47 60.92 47 65 C31.49 65 15.98 65 0 65 C0 43.55 0 22.1 0 0 Z " fill="#348526" transform="translate(662,684)"/>
<path d="M0 0 C4.62 0 9.24 0 14 0 C14 17.49 14 34.98 14 53 C24.89 53 35.78 53 47 53 C47 56.96 47 60.92 47 65 C31.49 65 15.98 65 0 65 C0 43.55 0 22.1 0 0 Z " fill="#0E6494" transform="translate(462,684)"/>
<path d="M0 0 C4.749733 2.11897351 7.6020986 5.07498229 10.56640625 9.296875 C12.52646711 15.17705758 12.39456152 21.89958343 10.37890625 27.734375 C6.89099654 32.66555769 3.33980286 36.3024289 -2.43359375 38.296875 C-10.81044678 39.13801705 -16.48625989 38.50982117 -23.12109375 33.109375 C-27.42892677 27.87011862 -29.07276081 22.30335808 -28.76953125 15.52734375 C-27.86764 9.53920534 -25.23987255 5.52039255 -20.49609375 1.796875 C-14.16622049 -2.02611776 -7.00556264 -2.02407909 0 0 Z " fill="#929192" transform="translate(550.43359375,783.703125)"/>
<path d="M0 0 C4.29 0 8.58 0 13 0 C13 17.16 13 34.32 13 52 C23.56 52 34.12 52 45 52 C45 55.96 45 59.92 45 64 C30.15 64 15.3 64 0 64 C0 42.88 0 21.76 0 0 Z " fill="#046094" transform="translate(200,685)"/>
<path d="M0 0 C3.3 -0.0825 6.6 -0.165 10 -0.25 C11.02351563 -0.28641602 12.04703125 -0.32283203 13.1015625 -0.36035156 C19.25965488 -0.43422961 23.88649383 0.43720623 29 4 C31.9765886 7.34866218 32.58263169 10.51363722 32.4296875 15 C31.65395507 18.61068185 29.60947818 20.45265225 27 23 C26.34 23.33 25.68 23.66 25 24 C25.6011191 27.69984575 27.21246673 29.81523711 29.5625 32.6875 C33 36.91348089 33 36.91348089 33 38 C27.43971108 38.9708441 27.43971108 38.9708441 24 38 C21.41029077 35.34587014 19.39160037 32.58740056 17.3359375 29.50390625 C14.34722773 26.30028926 12.2834675 26.20224604 8 26 C8 29.96 8 33.92 8 38 C5.36 38 2.72 38 0 38 C0 25.46 0 12.92 0 0 Z " fill="#939393" transform="translate(468,783)"/>
<path d="M0 0 C3.3 -0.103125 6.6 -0.20625 10 -0.3125 C11.53527344 -0.38078003 11.53527344 -0.38078003 13.1015625 -0.45043945 C19.49079057 -0.54625315 24.24897834 0.50870681 29 5 C31.3653239 8.82862572 31.6872123 12.59675082 31 17 C28.72220662 21.47122404 26.50299725 23.84856798 22 26 C18.44921875 26.29296875 18.44921875 26.29296875 14.6875 26.1875 C12.80611328 26.14689453 12.80611328 26.14689453 10.88671875 26.10546875 C9.93410156 26.07066406 8.98148438 26.03585937 8 26 C8 29.96 8 33.92 8 38 C5.36 38 2.72 38 0 38 C0 25.46 0 12.92 0 0 Z " fill="#959495" transform="translate(586,783)"/>
<path d="M0 0 C9.57 0 19.14 0 29 0 C29 2.31 29 4.62 29 7 C22.07 7 15.14 7 8 7 C8 9.97 8 12.94 8 16 C14.27 16 20.54 16 27 16 C27 17.98 27 19.96 27 22 C20.73 22 14.46 22 8 22 C8 24.97 8 27.94 8 31 C14.93 31 21.86 31 29 31 C29 33.31 29 35.62 29 38 C19.43 38 9.86 38 0 38 C0 25.46 0 12.92 0 0 Z " fill="#969596" transform="translate(355,783)"/>
<path d="M0 0 C9.57 0 19.14 0 29 0 C29 2.31 29 4.62 29 7 C22.07 7 15.14 7 8 7 C8 9.97 8 12.94 8 16 C14.27 16 20.54 16 27 16 C27 17.98 27 19.96 27 22 C20.73 22 14.46 22 8 22 C8 24.97 8 27.94 8 31 C14.93 31 21.86 31 29 31 C29 33.31 29 35.62 29 38 C19.43 38 9.86 38 0 38 C0 25.46 0 12.92 0 0 Z " fill="#949393" transform="translate(640,783)"/>
<path d="M0 0 C2.64 0 5.28 0 8 0 C8.00410889 0.76143311 8.00821777 1.52286621 8.01245117 2.30737305 C8.0454114 5.76819666 8.11606054 9.22726571 8.1875 12.6875 C8.19330078 13.88568359 8.19910156 15.08386719 8.20507812 16.31835938 C8.11299446 23.37456278 8.11299446 23.37456278 11.359375 29.3046875 C14.58146051 31.37330453 16.23622463 31.56056229 20 31 C22.28497767 30.44123112 22.28497767 30.44123112 24 29 C25.72998347 25.42815715 26.28178165 22.42684747 26.4140625 18.48046875 C26.45273437 17.45888672 26.49140625 16.43730469 26.53125 15.38476562 C26.5621875 14.32966797 26.593125 13.27457031 26.625 12.1875 C26.66367187 11.11306641 26.70234375 10.03863281 26.7421875 8.93164062 C26.83618613 6.28792912 26.92184573 3.6442195 27 1 C29.31 1 31.62 1 34 1 C34.08738991 5.37487331 34.140524 9.74952078 34.1875 14.125 C34.21263672 15.3625 34.23777344 16.6 34.26367188 17.875 C34.27333984 19.07382812 34.28300781 20.27265625 34.29296875 21.5078125 C34.3086792 22.60754395 34.32438965 23.70727539 34.34057617 24.84033203 C33.87166539 29.19061401 32.42994229 32.60887967 29.2734375 35.6796875 C22.70762983 39.81371455 17.72410903 39.68275332 10.25 38.3125 C6.40421977 36.75939645 4.54469924 35.27175616 2 32 C-0.57136874 25.46925724 -0.22754539 19.00009022 -0.125 12.0625 C-0.11597656 10.90169922 -0.10695313 9.74089844 -0.09765625 8.54492188 C-0.07421162 5.69639892 -0.04139522 2.84830922 0 0 Z " fill="#939393" transform="translate(408,783)"/>
<path d="M0 0 C3.20750829 1.62983145 5.25012751 3.9774466 7.375 6.875 C8.75785693 11.57671357 8.57576982 14.93071319 6.25 19.25 C1.73789393 24.76479631 1.73789393 24.76479631 -2.078125 25.28125 C-6.79347352 25.46861484 -10.37575202 25.30446139 -14 22 C-16.9525527 16.80757973 -17.73881915 12.81820083 -17 7 C-12.86861175 -0.06926433 -7.70931218 -1.06416886 0 0 Z " fill="#FAFAFA" transform="translate(547,790)"/>
<path d="M0 0 C3.56295812 -0.08104454 7.12406707 -0.14052442 10.6875 -0.1875 C11.69490234 -0.21263672 12.70230469 -0.23777344 13.74023438 -0.26367188 C23.01082132 -0.35545986 23.01082132 -0.35545986 27 3 C27.66 3.66 28.32 4.32 29 5 C28.79953373 8.14063829 28.54877905 10.27660943 26.625 12.8125 C23.49133587 15.10248532 20.63098713 15.11925426 16.89453125 15.09765625 C15.91162109 15.09443359 14.92871094 15.09121094 13.91601562 15.08789062 C12.89185547 15.07951172 11.86769531 15.07113281 10.8125 15.0625 C9.77673828 15.05798828 8.74097656 15.05347656 7.67382812 15.04882812 C5.1158608 15.03704026 2.55792314 15.01910482 0 15 C0 10.05 0 5.1 0 0 Z " fill="#FAFBFC" transform="translate(340,722)"/>
<path d="M0 0 C0.33 0 0.66 0 1 0 C1.30811028 11.45143215 0.73439003 22.67064849 -1 34 C-1.14050781 35.01191406 -1.28101563 36.02382812 -1.42578125 37.06640625 C-2.19396667 39.9270722 -2.70981505 41.09307049 -5 43 C-9.9391643 44.78099845 -14.8387496 45.81003739 -20.00927734 46.66210938 C-22.36907821 47.06264462 -24.67778264 47.6100392 -27 48.1875 C-35.32365625 49.98591904 -43.5054973 50.12935791 -52 50 C-52 49.67 -52 49.34 -52 49 C-51.01157104 48.75878418 -51.01157104 48.75878418 -50.00317383 48.51269531 C-33.56861384 44.54509009 -33.56861384 44.54509009 -17.390625 39.6640625 C-15 39 -15 39 -11 39 C-10.896875 38.29875 -10.79375 37.5975 -10.6875 36.875 C-10 34 -10 34 -8.58203125 31.33203125 C-6.77509858 27.52631874 -5.87893821 23.9100657 -5 19.8125 C-4.66300506 18.30954819 -4.32445931 16.80694327 -3.984375 15.3046875 C-3.82001953 14.57475586 -3.65566406 13.84482422 -3.48632812 13.09277344 C-2.46358889 8.69170884 -1.23857085 4.34438109 0 0 Z " fill="#F5A515" transform="translate(354,193)"/>
<path d="M0 0 C3.2296738 -0.08111739 6.45730014 -0.14055592 9.6875 -0.1875 C11.05551758 -0.22520508 11.05551758 -0.22520508 12.45117188 -0.26367188 C21.20932577 -0.35921537 21.20932577 -0.35921537 25 3 C26.0625 6.4375 26.0625 6.4375 26 10 C23.82946501 12.94572605 22.47817177 13.84060941 19 15 C17.51876453 15.0806622 16.03417796 15.10761193 14.55078125 15.09765625 C13.70322266 15.09443359 12.85566406 15.09121094 11.98242188 15.08789062 C11.10134766 15.07951172 10.22027344 15.07113281 9.3125 15.0625 C8.41982422 15.05798828 7.52714844 15.05347656 6.60742188 15.04882812 C4.40491927 15.03705004 2.20245115 15.01911481 0 15 C0 10.05 0 5.1 0 0 Z " fill="#F4F8F9" transform="translate(340,696)"/>
<path d="M0 0 C4.30519595 0.02082793 8.61041712 0.0296709 12.91564941 0.03967285 C21.29332048 0.06082679 29.6708724 0.09474788 38.04846191 0.1373291 C38.04846191 1.7873291 38.04846191 3.4373291 38.04846191 5.1373291 C22.27141825 5.20080951 6.50921566 5.03972528 -9.26403809 4.6998291 C-10.32484589 4.67776398 -11.38565369 4.65569885 -12.47860718 4.63296509 C-28.31114288 4.30257727 -44.13188849 3.8698646 -59.95153809 3.1373291 C-59.95153809 2.8073291 -59.95153809 2.4773291 -59.95153809 2.1373291 C-39.94862331 -0.08605253 -20.09524967 -0.1078457 0 0 Z " fill="#CFCFCF" transform="translate(282.9515380859375,798.8626708984375)"/>
<path d="M0 0 C2.11035747 2.11035747 2.42466437 3.04550939 3.25 5.8125 C5.29970394 11.49811092 9.15401574 14.00863808 14.375 16.8125 C15.24125 17.204375 16.1075 17.59625 17 18 C16.46375 18.2475 15.9275 18.495 15.375 18.75 C8.48031656 22.37878076 4.4990295 25.95262036 1.75 33.375 C1.5025 34.24125 1.255 35.1075 1 36 C-0.14867715 33.70264569 -1.243206 31.42846589 -2.25 29.0625 C-4.70591301 24.76465223 -7.4965422 21.87057181 -12.16796875 20.24609375 C-14.09509209 19.75834395 -16.04692546 19.37041069 -18 19 C-15.35392064 17.23594709 -12.87854286 16.0025486 -10 14.6875 C-5.96805425 12.67738751 -3.66004472 11.35761738 -2 7 C-1.27833809 4.68308546 -0.59940471 2.35151077 0 0 Z " fill="#F1F6F8" transform="translate(471,557)"/>
<path d="M0 0 C0.66 0 1.32 0 2 0 C2.15855469 0.67546875 2.31710937 1.3509375 2.48046875 2.046875 C3.94088326 7.67299175 3.94088326 7.67299175 7.125 12.4375 C10.9342716 14.5077563 14.84272981 15.80444517 19 17 C16.6476009 18.56826607 14.60558817 19.66542568 12.0625 20.8125 C7.7874558 22.94610004 5.0006952 25.23946151 3.3203125 29.875 C2.8221698 31.56732039 2.40405125 33.28278218 2 35 C1.34 35 0.68 35 0 35 C-0.15855469 34.40832031 -0.31710937 33.81664062 -0.48046875 33.20703125 C-2.02899338 27.96258043 -3.40047979 24.2996558 -8 21 C-10.96833816 20.05212731 -13.91927388 19.44969205 -17 19 C-17 18.34 -17 17.68 -17 17 C-16.00419922 16.77957031 -16.00419922 16.77957031 -14.98828125 16.5546875 C-8.67300931 14.95051623 -5.40904583 13.64623216 -2 8 C-1.08833301 5.32288263 -0.52960968 2.7924874 0 0 Z " fill="#F1F5F8" transform="translate(349,387)"/>
<path d="M0 0 C8.86780135 -0.02334119 17.73559185 -0.04102468 26.6034174 -0.05181217 C30.72268331 -0.05699394 34.84192796 -0.06400424 38.96118164 -0.07543945 C42.94882346 -0.08643793 46.93644504 -0.0923121 50.92410088 -0.09487724 C52.43284867 -0.09670135 53.94159556 -0.10026191 55.45033455 -0.10573006 C83.73012599 -0.20399267 83.73012599 -0.20399267 89 3 C75.8584077 3.89245877 62.73040164 4.29891499 49.5625 4.5625 C48.05535431 4.59426834 48.05535431 4.59426834 46.51776123 4.62667847 C31.01004965 4.95271969 15.51135244 5.14857617 0 5 C0 3.35 0 1.7 0 0 Z " fill="#C4C4C4" transform="translate(703,799)"/>
<path d="M0 0 C1.59287059 2.38930589 2.58662398 4.34222214 3.6875 6.9375 C5.92594706 11.52379191 8.44704279 12.84769295 13 15 C14.485 15.99 14.485 15.99 16 17 C14.98679687 17.43699219 14.98679687 17.43699219 13.953125 17.8828125 C8.4266007 20.42245806 4.73476374 22.29266698 2 28 C1.21784412 30.7282504 1.21784412 30.7282504 1 33 C0.34 33 -0.32 33 -1 33 C-1.391875 31.783125 -1.78375 30.56625 -2.1875 29.3125 C-3.76380288 25.20103719 -5.42811881 22.71773569 -9 20 C-11.94591316 18.77212359 -14.91891184 17.82565108 -18 17 C-15.43753697 15.29169131 -13.39226903 14.33800563 -10.5625 13.25 C-5.06961851 10.85132286 -3.10573259 7.54318496 -0.75 2.125 C-0.5025 1.42375 -0.255 0.7225 0 0 Z " fill="#FEFCF4" transform="translate(619,279)"/>
<path d="M0 0 C1.08871902 -0.00175232 2.17743805 -0.00350464 3.29914856 -0.00531006 C6.88646047 -0.00969944 10.47372278 -0.0068004 14.06103516 -0.00341797 C16.56295786 -0.00409194 19.0648805 -0.00506275 21.56680298 -0.00631714 C26.80707298 -0.00779025 32.04733018 -0.00574837 37.28759766 -0.00097656 C42.65902614 0.00385853 48.03042699 0.00386725 53.40185547 -0.00097656 C59.90031159 -0.00678533 66.39874752 -0.00767611 72.89720535 -0.00442123 C75.36825185 -0.00375594 77.83929921 -0.00456646 80.3103447 -0.00690079 C83.77072147 -0.00945201 87.23103422 -0.00555168 90.69140625 0 C92.21132423 -0.00303635 92.21132423 -0.00303635 93.76194763 -0.00613403 C99.57942206 0.01107825 105.20462828 0.3813733 110.97509766 1.12939453 C110.97509766 1.45939453 110.97509766 1.78939453 110.97509766 2.12939453 C109.28977432 2.12606361 109.28977432 2.12606361 107.57040405 2.12266541 C96.83696549 2.10214723 86.10353105 2.08728718 75.37007713 2.07758236 C69.85559632 2.0724249 64.34113167 2.06546192 58.82666016 2.05395508 C13.53965695 -0.00415382 13.53965695 -0.00415382 -31.02490234 5.12939453 C-33.54371831 5.24802442 -36.06582445 5.3045701 -38.58740234 5.31689453 C-39.25964844 5.32914063 -39.93189453 5.34138672 -40.62451172 5.35400391 C-44.32368472 5.36502428 -45.86462168 5.23624831 -49.02490234 3.12939453 C-47.67126587 3.04637085 -47.67126587 3.04637085 -46.2902832 2.96166992 C-42.91497372 2.75330142 -39.5398415 2.54240264 -36.16479492 2.32983398 C-34.70912814 2.23866319 -33.25339935 2.14847639 -31.79760742 2.05932617 C-29.69481269 1.93037781 -27.59227267 1.79779203 -25.48974609 1.66455078 C-24.22767334 1.58599854 -22.96560059 1.50744629 -21.6652832 1.42651367 C-18.11342966 1.18848222 -18.11342966 1.18848222 -14.98643494 0.61891174 C-9.97007808 -0.00094761 -5.04926547 -0.0100468 0 0 Z " fill="#DFDEDE" transform="translate(549.02490234375,617.87060546875)"/>
<path d="M0 0 C0.66 0 1.32 0 2 0 C4.45924567 5.86590564 6.91020791 11.73550972 9.3125 17.625 C9.80169922 18.81996094 9.80169922 18.81996094 10.30078125 20.0390625 C11 22 11 22 11 24 C4.4 24 -2.2 24 -9 24 C-5.65423729 13.96271186 -5.65423729 13.96271186 -3.375 9.1875 C-1.92087206 6.13383133 -0.69558772 3.3156348 0 0 Z " fill="#F1F7EF" transform="translate(619,700)"/>
<path d="M0 0 C0.66 0 1.32 0 2 0 C3.50585523 3.45581315 5.00368289 6.91504753 6.5 10.375 C7.14388672 11.85226562 7.14388672 11.85226562 7.80078125 13.359375 C8.40986328 14.77089844 8.40986328 14.77089844 9.03125 16.2109375 C9.40830078 17.08024902 9.78535156 17.94956055 10.17382812 18.84521484 C11 21 11 21 11 23 C4.4 23 -2.2 23 -9 23 C-6.81966188 14.88429701 -3.65987185 7.55662861 0 0 Z " fill="#F0F6F8" transform="translate(419,701)"/>
<path d="M0 0 C0.99 0.99 0.99 0.99 2 2 C-4.05433208 3.63326168 -10.03543558 4.68772176 -16.25 5.5 C-17.21671631 5.62673096 -18.18343262 5.75346191 -19.17944336 5.8840332 C-22.11876599 6.26318445 -25.0592988 6.63171962 -28 7 C-29.2387085 7.16314697 -29.2387085 7.16314697 -30.50244141 7.32958984 C-41.33524505 8.73886254 -52.07618995 9.19812349 -63 9.25 C-64.20470947 9.25926514 -65.40941895 9.26853027 -66.65063477 9.27807617 C-77.28833263 9.24062725 -87.33532579 7.59778757 -97.625 5 C-98.31722656 4.835 -99.00945312 4.67 -99.72265625 4.5 C-104.75584416 3.24415584 -104.75584416 3.24415584 -107 1 C-106.3512793 1.13712402 -105.70255859 1.27424805 -105.03417969 1.41552734 C-95.44808589 3.24215081 -85.97249192 3.44002988 -76.25 3.625 C-74.57029445 3.66327834 -72.89060645 3.70233538 -71.2109375 3.7421875 C-67.14077139 3.83708934 -63.07051412 3.92149996 -59 4 C-59.66 4.33 -60.32 4.66 -61 5 C-61 5.66 -61 6.32 -61 7 C-48.48935873 6.72105594 -36.15331545 5.67501027 -23.75 4.0625 C-23.08418915 3.97713989 -22.4183783 3.89177979 -21.73239136 3.80383301 C-15.65580323 3.01850072 -9.6535288 2.22657131 -3.703125 0.74609375 C-2.48109375 0.49988281 -1.2590625 0.25367188 0 0 Z " fill="#145B84" transform="translate(394,497)"/>
<path d="M0 0 C10.56 1.32 21.12 2.64 32 4 C32 4.33 32 4.66 32 5 C22.29056778 5.04784281 12.59782476 5.030874 2.89280701 4.713974 C-21.42418932 3.92035037 -45.73537621 3.91451506 -70.0625 3.9375 C-71.42875771 3.93878403 -71.42875771 3.93878403 -72.82261658 3.94009399 C-84.21509729 3.95159561 -95.6075485 3.97184937 -107 4 C-107 3.67 -107 3.34 -107 3 C-95.08659333 1.88433866 -83.24294758 1.87025281 -71.2890625 1.90234375 C-69.2239892 1.90421292 -67.15891546 1.90563446 -65.09384155 1.90663147 C-59.70502459 1.9104174 -54.31623534 1.92021335 -48.9274292 1.93133545 C-43.40995661 1.94163476 -37.89247947 1.9461472 -32.375 1.95117188 C-21.58332128 1.96183983 -10.79166296 1.97886806 0 2 C0 1.34 0 0.68 0 0 Z " fill="#E1E0E1" transform="translate(468,616)"/>
<path d="M0 0 C-2.18751669 1.13426792 -4.2998665 2.10709518 -6.625 2.9375 C-9.30799602 3.88458824 -9.30799602 3.88458824 -11 7 C-13.77998949 7.97895137 -16.472415 8.81036387 -19.3125 9.5625 C-20.83003774 9.97824613 -22.34698254 10.3961636 -23.86328125 10.81640625 C-24.58298096 11.01435791 -25.30268066 11.21230957 -26.04418945 11.41625977 C-28.1596679 12.0128245 -28.1596679 12.0128245 -30.75 13.125 C-33.83117928 14.32323639 -36.73790296 14.3880252 -40.01171875 14.55859375 C-42.39835056 14.84779901 -42.39835056 14.84779901 -44 18 C-44.08594816 12.8431105 -44.08594816 12.8431105 -43 10 C-40.28449049 7.87673618 -37.27271772 6.99055551 -34 6 C-32.78957031 5.60554687 -32.78957031 5.60554687 -31.5546875 5.203125 C-25.85072969 3.49368199 -20.03957831 2.37485601 -14.1875 1.3125 C-13.47013672 1.18093506 -12.75277344 1.04937012 -12.01367188 0.91381836 C-7.96210516 0.21196844 -4.10990017 -0.13549121 0 0 Z " fill="#0B5A92" transform="translate(411,246)"/>
<path d="M0 0 C10.35191775 -0.36971135 10.35191775 -0.36971135 13.328125 1.328125 C15 3 15 3 15.5 5.9375 C15 9 15 9 13.6875 11.375 C9.29090442 14.03340663 5.0628521 13.2410882 0 13 C0 8.71 0 4.42 0 0 Z " fill="#FBFBFB" transform="translate(594,790)"/>
<path d="M0 0 C2.10353495 -0.0810206 4.20795952 -0.13919907 6.3125 -0.1875 C7.48425781 -0.22230469 8.65601563 -0.25710938 9.86328125 -0.29296875 C13 0 13 0 14.890625 1.32421875 C16.64297386 3.97125276 16.44926608 5.91931827 16 9 C13.66471658 11.39101811 12.3368133 11.9672785 8.984375 12.29296875 C7.91703125 12.25816406 6.8496875 12.22335937 5.75 12.1875 C2.90375 12.0946875 2.90375 12.0946875 0 12 C0 8.04 0 4.08 0 0 Z " fill="#FCFCFC" transform="translate(476,790)"/>
<path d="M0 0 C26.48160224 1.78422143 26.48160224 1.78422143 36 8 C38.06938562 11.30444752 38.34792083 14.39956416 37.51171875 18.24609375 C37.34285156 18.82488281 37.17398438 19.40367187 37 20 C36.608125 19.236875 36.21625 18.47375 35.8125 17.6875 C33.80529211 14.71129519 32.21744281 13.52828533 29 12 C28.01 12 27.02 12 26 12 C26 11.34 26 10.68 26 10 C25.36320312 9.90589844 24.72640625 9.81179688 24.0703125 9.71484375 C19.83997918 8.72991882 15.91043068 7.15270583 11.875 5.5625 C11.06417969 5.24990234 10.25335938 4.93730469 9.41796875 4.61523438 C5.98917254 3.27488677 3.08261328 2.05507552 0 0 Z " fill="#AD7419" transform="translate(311,247)"/>
<path d="M0 0 C5.22611256 2.68367942 7.1314008 5.62782562 9.1328125 11.09375 C11.46544772 19.101852 12.7230156 26.66276969 13 35 C12.01 34.67 11.02 34.34 10 34 C9.06445312 31.88623047 9.06445312 31.88623047 8.28125 29.1171875 C7.98863281 28.11429687 7.69601562 27.11140625 7.39453125 26.078125 C7.09933594 25.02109375 6.80414063 23.9640625 6.5 22.875 C4.28298964 14.80341171 4.28298964 14.80341171 1.28125 7.0078125 C0 4 0 4 0 0 Z " fill="#113936" transform="translate(341,259)"/>
<path d="M0 0 C8.86780135 -0.02334119 17.73559185 -0.04102468 26.6034174 -0.05181217 C30.72268331 -0.05699394 34.84192796 -0.06400424 38.96118164 -0.07543945 C42.94882346 -0.08643793 46.93644504 -0.0923121 50.92410088 -0.09487724 C52.43284867 -0.09670135 53.94159556 -0.10026191 55.45033455 -0.10573006 C83.73012599 -0.20399267 83.73012599 -0.20399267 89 3 C78.3120232 3.73259082 67.71460306 4.14036598 57 4 C57 3.67 57 3.34 57 3 C62.94 2.505 62.94 2.505 69 2 C35.34 1.505 35.34 1.505 1 1 C1 1.99 1 2.98 1 4 C9.25 4 17.5 4 26 4 C26 4.33 26 4.66 26 5 C17.42 5 8.84 5 0 5 C0 3.35 0 1.7 0 0 Z " fill="#D6D6D6" transform="translate(703,799)"/>
<path d="M0 0 C0 1.65 0 3.3 0 5 C-3.60414885 5.02953103 -7.20826576 5.04697407 -10.8125 5.0625 C-11.81732422 5.07087891 -12.82214844 5.07925781 -13.85742188 5.08789062 C-20.62868824 5.10966319 -27.26910926 4.7369831 -34 4 C-34 3.01 -34 2.02 -34 1 C-22.64753762 0.13387208 -11.38380184 -0.11858127 0 0 Z " fill="#B8B8B8" transform="translate(321,799)"/>
<path d="M0 0 C9.57 0 19.14 0 29 0 C29 9.24 29 18.48 29 28 C28.34 28 27.68 28 27 28 C27 19.42 27 10.84 27 2 C18.75 2 10.5 2 2 2 C2 4.64 2 7.28 2 10 C6.62 10 11.24 10 16 10 C16 10.33 16 10.66 16 11 C10.72 11 5.44 11 0 11 C0 7.37 0 3.74 0 0 Z " fill="#27709C" transform="translate(160,712)"/>
<path d="M0 0 C0.66 0.33 1.32 0.66 2 1 C-0.38355241 4.8981498 -2.74695576 6.00104345 -6.98828125 7.54296875 C-8.16970703 7.97673828 -9.35113281 8.41050781 -10.56835938 8.85742188 C-11.80392578 9.29634766 -13.03949219 9.73527344 -14.3125 10.1875 C-16.14844727 10.86329102 -16.14844727 10.86329102 -18.02148438 11.55273438 C-23.35660027 13.48776554 -28.36270561 15.20676764 -34 16 C-32.52584883 13.05169765 -30.476601 12.75509574 -27.4609375 11.50390625 C-25.75357422 10.78944336 -25.75357422 10.78944336 -24.01171875 10.06054688 C-22.81160156 9.56619141 -21.61148438 9.07183594 -20.375 8.5625 C-18.02864482 7.58463785 -15.68229063 6.60677333 -13.3359375 5.62890625 C-11.68029785 4.94658936 -11.68029785 4.94658936 -9.99121094 4.25048828 C-7.56810343 3.23749802 -5.17815483 2.17911628 -2.7890625 1.08984375 C-1.86867188 0.73019531 -0.94828125 0.37054688 0 0 Z " fill="#E4F1F4" transform="translate(558,506)"/>
<path d="M0 0 C10.23 0 20.46 0 31 0 C30.01 1.485 30.01 1.485 29 3 C26.11083984 3.34057617 26.11083984 3.34057617 22.4609375 3.29296875 C20.50800781 3.2784668 20.50800781 3.2784668 18.515625 3.26367188 C17.13541077 3.23860388 15.75520244 3.21320902 14.375 3.1875 C12.98699337 3.17245517 11.59897133 3.15876641 10.2109375 3.14648438 C6.80690491 3.1110257 3.40364378 3.06160298 0 3 C0 2.01 0 1.02 0 0 Z " fill="#A2A1A2" transform="translate(704,800)"/>
<path d="M0 0 C0 0.99 0 1.98 0 3 C0.99 3.33 1.98 3.66 3 4 C-7.10406102 6.46032691 -16.60229754 7.15834065 -27 7 C-27 6.67 -27 6.34 -27 6 C-23.0639449 4.99425299 -19.12593326 3.99638995 -15.1875 3 C-14.06794922 2.71382812 -12.94839844 2.42765625 -11.79492188 2.1328125 C-10.72177734 1.86210937 -9.64863281 1.59140625 -8.54296875 1.3125 C-7.0583313 0.93544922 -7.0583313 0.93544922 -5.54370117 0.55078125 C-3 0 -3 0 0 0 Z " fill="#FCBE22" transform="translate(329,236)"/>
<path d="M0 0 C1.7934082 0.07250977 1.7934082 0.07250977 3.62304688 0.14648438 C5.46672852 0.2305957 5.46672852 0.2305957 7.34765625 0.31640625 C9.23194336 0.3947168 9.23194336 0.3947168 11.15429688 0.47460938 C14.23987326 0.6036639 17.3250743 0.73860295 20.41015625 0.87890625 C20.41015625 1.20890625 20.41015625 1.53890625 20.41015625 1.87890625 C19.14909058 1.91649048 19.14909058 1.91649048 17.86254883 1.95483398 C14.67724821 2.05122578 11.49204679 2.15036036 8.30688477 2.2512207 C6.94070661 2.29394878 5.57449594 2.33565231 4.20825195 2.3762207 C-11.32257225 2.50859936 -11.32257225 2.50859936 -26.58984375 4.87890625 C-29.10865972 4.99753614 -31.63076586 5.05408182 -34.15234375 5.06640625 C-34.82458984 5.07865234 -35.49683594 5.09089844 -36.18945312 5.10351562 C-39.88862612 5.114536 -41.42956308 4.98576003 -44.58984375 2.87890625 C-43.23620728 2.79588257 -43.23620728 2.79588257 -41.85522461 2.71118164 C-38.47991513 2.50281314 -35.1047829 2.29191436 -31.72973633 2.0793457 C-30.27406954 1.98817491 -28.81834076 1.89798811 -27.36254883 1.80883789 C-25.25975409 1.67988953 -23.15721408 1.54730375 -21.0546875 1.4140625 C-19.79261475 1.33551025 -18.53054199 1.25695801 -17.23022461 1.17602539 C-14.8236536 0.97960685 -12.42224043 0.70119959 -10.03515625 0.33789062 C-6.60026643 -0.11970524 -3.45809097 -0.14891301 0 0 Z " fill="#BEBCBC" transform="translate(544.58984375,618.12109375)"/>
<path d="M0 0 C0.33 0 0.66 0 1 0 C1 2.64 1 5.28 1 8 C-4.24385089 9.7479503 -8.47322267 10.19392201 -14 10 C-14 8.68 -14 7.36 -14 6 C-12.4188708 5.49307308 -10.83498617 4.99473557 -9.25 4.5 C-8.36828125 4.2215625 -7.4865625 3.943125 -6.578125 3.65625 C-4 3 -4 3 0 3 C0 2.01 0 1.02 0 0 Z " fill="#F9B31B" transform="translate(343,229)"/>
<path d="M0 0 C3 1 3 1 4.14794922 2.79370117 C5.0141325 5.03659467 5.3932392 6.91373607 5.6328125 9.30078125 C5.71660156 10.11353516 5.80039062 10.92628906 5.88671875 11.76367188 C5.96535156 12.60478516 6.04398437 13.44589844 6.125 14.3125 C6.21136719 15.14201172 6.29773438 15.97152344 6.38671875 16.82617188 C6.85905251 21.57575022 7.09016069 26.22792346 7 31 C6.67 31 6.34 31 6 31 C3.43105638 20.6992843 1.27109532 10.55343612 0 0 Z " fill="#FEE07E" transform="translate(347,256)"/>
<path d="M0 0 C-1.04633347 3.30383377 -1.994439 3.99702438 -5.1171875 5.66796875 C-6.36415537 6.18820057 -7.6170854 6.69432574 -8.875 7.1875 C-9.50019531 7.44724609 -10.12539063 7.70699219 -10.76953125 7.97460938 C-13.80327185 9.21568507 -16.78746519 10.33004927 -20 11 C-20.33 9.68 -20.66 8.36 -21 7 C-17.87694627 5.82807565 -14.75125261 4.66336124 -11.625 3.5 C-10.73554687 3.16613281 -9.84609375 2.83226562 -8.9296875 2.48828125 C-8.07890625 2.17246094 -7.228125 1.85664062 -6.3515625 1.53125 C-5.17327881 1.09135742 -5.17327881 1.09135742 -3.97119141 0.64257812 C-2 0 -2 0 0 0 Z " fill="#0A92B3" transform="translate(554,512)"/>
<path d="M0 0 C8.91 0 17.82 0 27 0 C27 0.66 27 1.32 27 2 C13.65131342 2.74380741 0.36929696 3.13751277 -13 3 C-13 2.67 -13 2.34 -13 2 C-6.565 1.505 -6.565 1.505 0 1 C0 0.67 0 0.34 0 0 Z " fill="#EDEDED" transform="translate(788,800)"/>
<path d="M0 0 C1.04269043 0.20568604 1.04269043 0.20568604 2.10644531 0.41552734 C10.33523726 1.92580677 18.39636634 2.41572317 26.75 2.625 C28.03132813 2.66367187 29.31265625 2.70234375 30.6328125 2.7421875 C33.7550747 2.83538936 36.87734693 2.9211969 40 3 C40 3.33 40 3.66 40 4 C34.06 4 28.12 4 22 4 C22 4.66 22 5.32 22 6 C25.465 5.505 25.465 5.505 29 5 C28.67 5.66 28.34 6.32 28 7 C22.02533809 7.30722213 16.93505155 6.19773509 11.1875 4.625 C10.32962891 4.40328125 9.47175781 4.1815625 8.58789062 3.953125 C2.26051457 2.26051457 2.26051457 2.26051457 0 0 Z " fill="#48728B" transform="translate(287,498)"/>
<path d="M0 0 C-3.87010684 3.87010684 -9.95275379 4.86817347 -15.0625 6.5625 C-16.86750977 7.1802832 -16.86750977 7.1802832 -18.70898438 7.81054688 C-25.20023818 9.97666161 -31.16234324 11.5804667 -38 12 C-34.72110627 9.81407085 -32.04637843 9.07676849 -28.25 8.0625 C-22.42410436 6.45729478 -22.42410436 6.45729478 -16.8125 4.25 C-14 3 -14 3 -11 3 C-11 2.34 -11 1.68 -11 1 C-7.26562152 0.12132271 -3.83225427 -0.08912219 0 0 Z " fill="#136C67" transform="translate(488,474)"/>
<path d="M0 0 C0 0.33 0 0.66 0 1 C-3.63 1.33 -7.26 1.66 -11 2 C-11 2.33 -11 2.66 -11 3 C-19.83223535 4.19354532 -28.15967082 3.77546747 -37 3 C-37 2.67 -37 2.34 -37 2 C-24.60320889 0.20150181 -12.51879169 -0.23302818 0 0 Z " fill="#3682A2" transform="translate(749,276)"/>
<path d="M0 0 C0 0.33 0 0.66 0 1 C-18.00992607 1.21640766 -36.0016491 0.56749517 -54 0 C-54 -0.33 -54 -0.66 -54 -1 C-35.83547872 -1.83231439 -18.07830657 -2.4885951 0 0 Z " fill="#C6C6C7" transform="translate(500,620)"/>
<path d="M0 0 C0 3 0 3 -2.01953125 5.32836914 C-2.94121094 6.22160889 -3.86289062 7.11484863 -4.8125 8.03515625 C-5.30081299 8.51448105 -5.78912598 8.99380585 -6.29223633 9.48765564 C-7.8545499 11.01990672 -9.42635149 12.54189852 -11 14.0625 C-12.57275284 15.5875137 -14.14320542 17.11463459 -15.70776367 18.64805603 C-17.1265577 20.03795509 -18.55334307 21.4196825 -19.98046875 22.80102539 C-22.22547226 24.7479011 -22.22547226 24.7479011 -22 27 C-23.98 27.33 -25.96 27.66 -28 28 C-25.73002168 24.87877981 -23.30474272 22.3257284 -20.375 19.84375 C-15.87458298 15.94888272 -11.68160186 11.79443596 -7.5 7.5625 C-6.77296875 6.83095703 -6.0459375 6.09941406 -5.296875 5.34570312 C-3.52890501 3.56610176 -1.76333622 1.78419082 0 0 Z " fill="#FDD03E" transform="translate(581,302)"/>
<path d="M0 0 C-0.99 0 -1.98 0 -3 0 C-3 0.66 -3 1.32 -3 2 C0.3 2 3.6 2 7 2 C7 2.33 7 2.66 7 3 C-3.23 3 -13.46 3 -24 3 C-24 2.67 -24 2.34 -24 2 C-20.75198175 1.46626918 -17.50138509 0.95028732 -14.25 0.4375 C-13.32960938 0.28603516 -12.40921875 0.13457031 -11.4609375 -0.02148438 C-10.12675781 -0.2293457 -10.12675781 -0.2293457 -8.765625 -0.44140625 C-7.94868164 -0.57232666 -7.13173828 -0.70324707 -6.29003906 -0.83813477 C-3.93889793 -1.00431883 -2.23573504 -0.70259545 0 0 Z " fill="#295F89" transform="translate(341,563)"/>
<path d="M0 0 C5.28 0 10.56 0 16 0 C16 0.99 16 1.98 16 3 C8.74 3 1.48 3 -6 3 C-6 2.67 -6 2.34 -6 2 C-4.02 2 -2.04 2 0 2 C0 1.34 0 0.68 0 0 Z " fill="#A09FA0" transform="translate(304,800)"/>
<path d="M0 0 C3.63 0.66 7.26 1.32 11 2 C11 2.33 11 2.66 11 3 C-3.52 3 -18.04 3 -33 3 C-33 2.67 -33 2.34 -33 2 C-22.11 2 -11.22 2 0 2 C0 1.34 0 0.68 0 0 Z " fill="#E1E1E1" transform="translate(468,616)"/>
<path d="M0 0 C6.00945349 3.08593558 7.71778391 6.83769395 9.75 13.0625 C10.82491157 16.48219415 11.16933571 18.57890295 10 22 C7.41838434 19.41838434 7.01381573 17.18437221 6 13.6875 C4.83538562 9.69778588 3.61090454 5.83308983 2 2 C1.34 2 0.68 2 0 2 C0 1.34 0 0.68 0 0 Z " fill="#36440C" transform="translate(341,259)"/>
<path d="M0 0 C-0.99 0.66 -1.98 1.32 -3 2 C0.3 2.33 3.6 2.66 7 3 C7 3.33 7 3.66 7 4 C-0.26 4 -7.52 4 -15 4 C-15 3.34 -15 2.68 -15 2 C-9.77487721 0.53329887 -5.4185766 -0.22577402 0 0 Z " fill="#04497E" transform="translate(353,561)"/>
<path d="M0 0 C0.66 0.33 1.32 0.66 2 1 C1.26394531 1.65226562 0.52789062 2.30453125 -0.23046875 2.9765625 C-5.17149272 7.4019446 -9.96193659 11.7087445 -14 17 C-14.33 16.34 -14.66 15.68 -15 15 C-15.66 14.67 -16.32 14.34 -17 14 C-14.91784697 12.22776281 -12.83433081 10.45717274 -10.75 8.6875 C-10.16347656 8.18798828 -9.57695312 7.68847656 -8.97265625 7.17382812 C-6.04373434 4.68918088 -3.11144626 2.2565687 0 0 Z " fill="#959697" transform="translate(274,442)"/>
<path d="M0 0 C0.66 0 1.32 0 2 0 C5.64079463 6.43520528 7.64134677 11.58783319 8 19 C4.60457201 16.30158069 3.69468 12.95121789 2.3125 8.9375 C2.08755859 8.30005859 1.86261719 7.66261719 1.63085938 7.00585938 C0 2.30164799 0 2.30164799 0 0 Z " fill="#092D17" transform="translate(341,261)"/>
<path d="M0 0 C6.6 0 13.2 0 20 0 C19.01 1.485 19.01 1.485 18 3 C15.28515625 3.328125 15.28515625 3.328125 12.0625 3.25 C11.00160156 3.23453125 9.94070313 3.2190625 8.84765625 3.203125 C6 3 6 3 3 2 C2.01 2 1.02 2 0 2 C0 1.34 0 0.68 0 0 Z " fill="#034871" transform="translate(309,502)"/>
<path d="M0 0 C0.92683594 0.00451172 1.85367187 0.00902344 2.80859375 0.01367188 C5.08079709 0.02538426 7.35286388 0.04178628 9.625 0.0625 C7.3120518 2.3754482 6.14595125 2.55830975 3 3.1875 C2.18273437 3.35507813 1.36546875 3.52265625 0.5234375 3.6953125 C-0.41628906 3.87707031 -0.41628906 3.87707031 -1.375 4.0625 C-1.705 3.4025 -2.035 2.7425 -2.375 2.0625 C-6.995 2.0625 -11.615 2.0625 -16.375 2.0625 C-16.375 1.7325 -16.375 1.4025 -16.375 1.0625 C-10.89230931 -0.09414737 -5.57160726 -0.05166255 0 0 Z " fill="#1493D4" transform="translate(490.375,180.9375)"/>
<path d="M0 0 C0.66 0 1.32 0 2 0 C1.47164489 4.07690223 0.35324283 6.25617734 -2.375 9.3125 C-2.98085938 10.00988281 -3.58671875 10.70726562 -4.2109375 11.42578125 C-6 13 -6 13 -9 13 C-7.51516897 9.76306836 -5.67292565 7.0674375 -3.5 4.25 C-2.8915625 3.45078125 -2.283125 2.6515625 -1.65625 1.828125 C-1.1096875 1.22484375 -0.563125 0.6215625 0 0 Z " fill="#10447A" transform="translate(329,267)"/>
<path d="M0 0 C0.33 0 0.66 0 1 0 C1 4.95 1 9.9 1 15 C-0.98 15.99 -0.98 15.99 -3 17 C-2.48517081 11.147205 -1.54642808 5.6702363 0 0 Z " fill="#E38819" transform="translate(354,193)"/>
<path d="M0 0 C1.20849609 0.0515625 2.41699219 0.103125 3.66210938 0.15625 C5.55606445 0.25292969 5.55606445 0.25292969 7.48828125 0.3515625 C8.76251953 0.40828125 10.03675781 0.465 11.34960938 0.5234375 C14.50055754 0.66505315 17.65072597 0.81648135 20.80078125 0.9765625 C20.80078125 1.3065625 20.80078125 1.6365625 20.80078125 1.9765625 C16.73869884 2.17395956 12.6761107 2.35774614 8.61328125 2.5390625 C7.46279297 2.59513672 6.31230469 2.65121094 5.12695312 2.70898438 C4.01513672 2.75732422 2.90332031 2.80566406 1.7578125 2.85546875 C0.7366333 2.9026001 -0.2845459 2.94973145 -1.33666992 2.99829102 C-4.1021392 2.97729939 -6.51567566 2.61673302 -9.19921875 1.9765625 C-5.60693335 -0.41829443 -4.23916416 -0.19902179 0 0 Z " fill="#C4C6C7" transform="translate(544.19921875,618.0234375)"/>
<path d="M0 0 C0.33 0.66 0.66 1.32 1 2 C-0.89545392 2.48066535 -2.79138039 2.95946743 -4.6875 3.4375 C-6.27111328 3.83775391 -6.27111328 3.83775391 -7.88671875 4.24609375 C-10.5828317 4.89897932 -13.2757576 5.47941193 -16 6 C-16 5.34 -16 4.68 -16 4 C-4.57142857 -2.28571429 -4.57142857 -2.28571429 0 0 Z " fill="#3DA23D" transform="translate(534,449)"/>
<path d="M0 0 C1.99788438 0.34578768 3.99759451 0.68143549 6 1 C6 1.33 6 1.66 6 2 C-1.03905044 2.93854006 -7.90272572 3.10808032 -15 3 C-15 2.67 -15 2.34 -15 2 C-13.25364835 1.46706165 -11.50272348 0.94909337 -9.75 0.4375 C-8.77546875 0.14746094 -7.8009375 -0.14257812 -6.796875 -0.44140625 C-3.9703554 -1.00592064 -2.67203968 -0.90577616 0 0 Z " fill="#FAD05C" transform="translate(317,240)"/>
<path d="M0 0 C0.66 0.33 1.32 0.66 2 1 C2 1.66 2 2.32 2 3 C-0.26708325 3.8655047 -2.53775079 4.71759315 -4.8125 5.5625 C-5.45509766 5.80935547 -6.09769531 6.05621094 -6.75976562 6.31054688 C-11.66015625 8.11328125 -11.66015625 8.11328125 -15 7 C-12.54595776 5.80283341 -10.08748321 4.6170654 -7.625 3.4375 C-6.57699219 2.92413086 -6.57699219 2.92413086 -5.5078125 2.40039062 C-3.69947784 1.53969288 -1.85148044 0.76347564 0 0 Z " fill="#D7E9EE" transform="translate(539,514)"/>
<path d="M0 0 C0.97582031 0.00902344 1.95164062 0.01804687 2.95703125 0.02734375 C3.69308594 0.03894531 4.42914062 0.05054688 5.1875 0.0625 C4.1975 1.5475 4.1975 1.5475 3.1875 3.0625 C1.19921875 3.390625 1.19921875 3.390625 -1.125 3.3125 C-1.92421875 3.28671875 -2.7234375 3.2609375 -3.546875 3.234375 C-6.03129552 3.04590172 -8.39891295 2.68536117 -10.8125 2.0625 C-10.8125 1.7325 -10.8125 1.4025 -10.8125 1.0625 C-7.13862505 0.20951624 -3.7677607 -0.04539471 0 0 Z " fill="#B0AFB0" transform="translate(729.8125,799.9375)"/>
<path d="M0 0 C3.55285394 3.61952948 3.53872077 7.43805462 3.6875 12.25 C3.72166016 12.99507813 3.75582031 13.74015625 3.79101562 14.5078125 C3.87314054 16.33802492 3.93825653 18.16898669 4 20 C3.67 20 3.34 20 3 20 C2.30319306 16.85615273 1.61912457 13.70967088 0.9375 10.5625 C0.73833984 9.66466797 0.53917969 8.76683594 0.33398438 7.84179688 C0.15029297 6.98779297 -0.03339844 6.13378906 -0.22265625 5.25390625 C-0.48187866 4.06776733 -0.48187866 4.06776733 -0.74633789 2.85766602 C-0.83004639 2.24463623 -0.91375488 1.63160645 -1 1 C-0.67 0.67 -0.34 0.34 0 0 Z " fill="#EED261" transform="translate(350,267)"/>
<path d="M0 0 C2.97851562 0.390625 2.97851562 0.390625 5.95703125 0.78125 C8.15471706 1.053233 8.15471706 1.053233 11 1 C11.33 3.97 11.66 6.94 12 10 C11.1646875 8.8553125 11.1646875 8.8553125 10.3125 7.6875 C8.00442894 5.00514715 6.16128432 3.54011287 3 2 C2.01 2 1.02 2 0 2 C0 1.34 0 0.68 0 0 Z " fill="#916A12" transform="translate(337,257)"/>
<path d="M0 0 C-2.16427488 1.12221661 -4.26940553 2.098563 -6.5625 2.9375 C-8.99323155 3.99704965 -10.28475855 5.01393095 -12 7 C-12.33 6.01 -12.66 5.02 -13 4 C-13.99 3.34 -14.98 2.68 -16 2 C-10.61972975 0.80911014 -5.54708616 -0.2919519 0 0 Z " fill="#0D7DB6" transform="translate(411,246)"/>
<path d="M0 0 C0.33 0.99 0.66 1.98 1 3 C-0.28548409 4.33929505 -1.57858155 5.67128643 -2.875 7 C-3.59429688 7.7425 -4.31359375 8.485 -5.0546875 9.25 C-7 11 -7 11 -9 11 C-7.59155282 7.78475695 -5.89655214 5.67816132 -3.375 3.25 C-2.74335937 2.63640625 -2.11171875 2.0228125 -1.4609375 1.390625 C-0.73777344 0.70226562 -0.73777344 0.70226562 0 0 Z " fill="#55CD50" transform="translate(637,374)"/>
<path d="M0 0 C1 3 1 3 0.00390625 5.26171875 C-0.47175781 6.06222656 -0.94742188 6.86273438 -1.4375 7.6875 C-2.14712891 8.89986328 -2.14712891 8.89986328 -2.87109375 10.13671875 C-3.24363281 10.75160156 -3.61617187 11.36648438 -4 12 C-4.99 11.01 -5.98 10.02 -7 9 C-4.69 6.03 -2.38 3.06 0 0 Z " fill="#909690" transform="translate(739,325)"/>
<path d="M0 0 C0.66 0.33 1.32 0.66 2 1 C1.52949219 1.38671875 1.05898438 1.7734375 0.57421875 2.171875 C-2.6817612 4.89530336 -5.65453533 7.41281874 -8 11 C-8 6.26882208 -7.16783125 5.34382187 -4 2 C-1.875 0.625 -1.875 0.625 0 0 Z " fill="#FDD044" transform="translate(630,297)"/>
<path d="M0 0 C1.65 0.33 3.3 0.66 5 1 C3.720327 3.55934601 2.75798964 3.6989233 0.125 4.6875 C-0.57367187 4.95949219 -1.27234375 5.23148438 -1.9921875 5.51171875 C-4 6 -4 6 -7 5 C-5.824375 4.87625 -5.824375 4.87625 -4.625 4.75 C-1.85250896 4.27193661 -1.85250896 4.27193661 -0.6875 1.9375 C-0.460625 1.298125 -0.23375 0.65875 0 0 Z " fill="#08497D" transform="translate(589,602)"/>
<path d="M0 0 C0.66 0.33 1.32 0.66 2 1 C0.8141763 4.37503669 -0.27573689 6.64722731 -3 9 C-3.36923077 3.46153846 -3.36923077 3.46153846 -1.5 1.125 C-1.005 0.75375 -0.51 0.3825 0 0 Z " fill="#4B7C49" transform="translate(732,335)"/>
<path d="M0 0 C0.66 0 1.32 0 2 0 C0.44499019 3.81684226 -2.03595495 6.19195732 -5 9 C-5.66 8.67 -6.32 8.34 -7 8 C-5.88200014 6.66079162 -4.75538103 5.32877444 -3.625 4 C-2.68527344 2.88625 -2.68527344 2.88625 -1.7265625 1.75 C-1.15679687 1.1725 -0.58703125 0.595 0 0 Z " fill="#186A9D" transform="translate(260,690)"/>
<path d="M0 0 C3.63 0.66 7.26 1.32 11 2 C11 2.33 11 2.66 11 3 C6.05 3 1.1 3 -4 3 C-2.68 2.67 -1.36 2.34 0 2 C0 1.34 0 0.68 0 0 Z " fill="#EDEEEF" transform="translate(468,616)"/>
<path d="M0 0 C0 4.29 0 8.58 0 13 C-0.33 13 -0.66 13 -1 13 C-1 10.03 -1 7.06 -1 4 C-2.65 4.33 -4.3 4.66 -6 5 C-1.125 0 -1.125 0 0 0 Z " fill="#4FAA53" transform="translate(731,418)"/>
<path d="M0 0 C2.39763185 2.39763185 2.34280586 3.33273498 2.625 6.625 C2.69976562 7.44226563 2.77453125 8.25953125 2.8515625 9.1015625 C2.90054687 9.72804688 2.94953125 10.35453125 3 11 C1.03553095 9.3655205 0.07682209 8.53570606 -0.29296875 5.95703125 C-0.1953125 3.97135417 -0.09765625 1.98567708 0 0 Z " fill="#05250E" transform="translate(346,269)"/>
<path d="M0 0 C1.65 0.33 3.3 0.66 5 1 C5 1.99 5 2.98 5 4 C0.545 4.495 0.545 4.495 -4 5 C-3.34 4.34 -2.68 3.68 -2 3 C-0.68 3 0.64 3 2 3 C2 2.34 2 1.68 2 1 C1.34 0.67 0.68 0.34 0 0 Z " fill="#035188" transform="translate(394,249)"/>
<path d="M0 0 C-3.11910856 1.79275866 -5.67682428 2.34290718 -9.25 2.625 C-10.14203125 2.69976562 -11.0340625 2.77453125 -11.953125 2.8515625 C-12.62859375 2.90054687 -13.3040625 2.94953125 -14 3 C-9.2903051 -0.1397966 -5.55597581 -1.63411053 0 0 Z " fill="#B7D7E0" transform="translate(420,485)"/>
<path d="M0 0 C2 1 2 1 3 3 C-0.47325181 4.1577506 -3.36067448 4.06866652 -7 4 C-4.61426621 2.10786631 -2.92824652 0.97608217 0 0 Z " fill="#DCEAEF" transform="translate(424,481)"/>
<path d="M0 0 C0.66 0 1.32 0 2 0 C2.33 1.65 2.66 3.3 3 5 C-1.75 7.875 -1.75 7.875 -4 9 C-3.71125 8.443125 -3.4225 7.88625 -3.125 7.3125 C-1.9586747 4.91505355 -0.9660119 2.48403061 0 0 Z " fill="#359439" transform="translate(720,336)"/>
<path d="M0 0 C0.66 0.33 1.32 0.66 2 1 C-0.3125 3.5 -0.3125 3.5 -3 6 C-3.99 6 -4.98 6 -6 6 C-4.98545548 3.4636387 -4.3146444 2.20648539 -2 0.6875 C-1.34 0.460625 -0.68 0.23375 0 0 Z " fill="#033A70" transform="translate(326,274)"/>
<path d="M0 0 C0.66 0 1.32 0 2 0 C4.09230769 4.43076923 4.09230769 4.43076923 3.625 7.3125 C3.41875 7.869375 3.2125 8.42625 3 9 C0.23776722 6.23776722 0.42143709 3.79293383 0 0 Z " fill="#203A16" transform="translate(348,272)"/>
<path d="M0 0 C3.465 1.485 3.465 1.485 7 3 C6.34 4.32 5.68 5.64 5 7 C5 6.34 5 5.68 5 5 C4.34 5 3.68 5 3 5 C3 4.34 3 3.68 3 3 C2.01 3 1.02 3 0 3 C0 2.01 0 1.02 0 0 Z " fill="#C17C0F" transform="translate(340,252)"/>
<path d="M0 0 C0.99 0.66 1.98 1.32 3 2 C3 4 3 4 1.625 5.625 C0 7 0 7 -2 7 C-1.34 4.69 -0.68 2.38 0 0 Z " fill="#5ECF58" transform="translate(697,287)"/>
</svg>